<svg xmlns="http://www.w3.org/2000/svg" style="display: none;"><symbol id="students-cap" viewBox="0 0 791.803 791.803"><title>students-cap</title><path d="M395.904,475.016l-236.203-72.7v71.524v49.896c0,56.133,105.787,101.644,236.274,101.644 c130.48,0,236.285-45.511,236.285-101.644c0-0.442-0.145-0.886-0.154-1.318V402.316L395.904,475.016z"/><path d="M0,318.734l84.383,30.185l7.191-15.401l31-2.635l4.42,4.599l-26.601,6.308l-3.877,11.475 c-0.007,0-60.087,125.604-51.263,187.05c0,0,37.502,22.37,74.988,0l9.962-168v-13.984l55.8-12.588l-3.941,9.705l-41.604,13.529 l19.242,6.874l236.203,72.7l236.201-72.7l159.699-57.116l-395.9-152.313L0,318.734z"/></symbol><symbol id="waze" viewBox="0 0 512 512"><title>waze</title><g> <g> <path d="M288,16C164.48,16,64,109.312,64.192,226.432c1.76,11.584,2.88,45.568-12.8,63.776C43.424,299.488,31.84,304,16,304 c-8.832,0-16,7.168-16,16c0,48.352,40.096,81.408,119.264,98.208c1.12,0.224,2.208,0.352,3.328,0.352 c7.392,0,14.016-5.152,15.616-12.672c1.824-8.64-3.68-17.12-12.32-18.976c-52.256-11.104-82.912-28.768-91.424-52.576 c16.864-3.168,30.72-10.976,41.312-23.36C104.16,277.76,96.192,224,96,224c0-97.056,86.112-176,192-176s192,78.944,192,176 c0,66.112-40.032,126.176-104.448,156.736c-8,3.776-11.392,13.344-7.616,21.312c3.808,8.032,13.44,11.264,21.312,7.616 C464.96,373.76,512,302.624,512,224C512,109.312,411.488,16,288,16z"/> </g> </g><g> <g> <path d="M323.104,413.408c-0.896-8.8-9.44-15.232-17.536-14.272C299.712,399.712,293.856,400,288,400 c-32.736,0-58.976-0.896-82.56-2.816c-8.672-0.48-16.512,5.856-17.248,14.624c-0.704,8.8,5.856,16.544,14.656,17.248 C227.296,431.072,254.368,432,288,432c6.976,0,13.92-0.352,20.832-1.056C317.632,430.048,324,422.176,323.104,413.408z"/> </g> </g><g> <g> <path d="M352,368c-35.296,0-64,28.704-64,64c0,35.296,28.704,64,64,64c35.296,0,64-28.704,64-64C416,396.704,387.296,368,352,368z M352,464c-17.664,0-32-14.336-32-32s14.336-32,32-32s32,14.336,32,32S369.664,464,352,464z"/> </g> </g><g> <g> <path d="M160,368c-35.296,0-64,28.704-64,64c0,35.296,28.704,64,64,64s64-28.704,64-64C224,396.704,195.296,368,160,368z M160,464 c-17.632,0-32-14.336-32-32s14.368-32,32-32s32,14.336,32,32S177.632,464,160,464z"/> </g> </g><g> <g> <path d="M224.64,160h-0.32c-8.832,0-15.84,7.168-15.84,16c0,8.832,7.328,16,16.16,16c8.832,0,16-7.168,16-16 C240.64,167.168,233.472,160,224.64,160z"/> </g> </g><g> <g> <path d="M352.64,160h-0.32c-8.832,0-15.84,7.168-15.84,16c0,8.832,7.36,16,16.16,16c8.832,0,16-7.168,16-16 C368.64,167.168,361.472,160,352.64,160z"/> </g> </g><g> <g> <path d="M371.52,240.384c-8.672-1.856-17.152,3.488-19.136,12.128C345.568,282.816,319.104,304,288,304 s-57.568-21.184-64.384-51.488c-1.952-8.64-10.496-14.08-19.136-12.096c-8.608,1.92-14.016,10.496-12.096,19.072 C202.528,304.576,241.856,336,288,336c46.176,0,85.504-31.456,95.648-76.48C385.568,250.88,380.16,242.336,371.52,240.384z"/> </g> </g></symbol><symbol id="doctor" viewBox="0 0 508 508"><title>doctor</title><path d="M328.003,246.6c29.8-34.8,48.4-85.4,48.4-123.7c0-67.8-55.1-122.9-122.9-122.9s-122.9,55.1-122.9,122.9 c0,38.3,18.6,88.9,48.4,123.7C-1.297,307.2,17.603,474,25.503,508h456C508.403,391.5,437.203,278.5,328.003,246.6z M253.503,16.4 c43.1,0,80.2,25.7,96.9,62.6c-40.9,27.9-82.4-3.6-82.4-3.6c-29-16.9-65.4-15.3-92.8,3.9l-24.8,17.4 C162.103,50.7,203.803,16.4,253.503,16.4z M147.003,122.9c0-1.3,0.1-2.6,0.2-3.9l37.4-26.3c22.2-15.6,51.7-16.8,75.1-3.2 c0,0,45.7,35,96.4,5.3c2.4,8.9,3.9,18.3,3.9,28c0,58.2-47.7,147.5-106.5,147.5S147.003,181.1,147.003,122.9z M467.903,491.6 h-428.7c-12.4-76.9,19.1-150.8,77.1-195.3c3.5,23,10.3,45.1,20.4,66.1c-25.3,15.9-37.2,47.8-26.9,77.1l13.6,38.6l30.9-10.9 l-5.4-15.5l-15.5,5.4l-8.2-23.2c-9-25.6,4.5-53.7,30.1-62.7c25.5-9,53.7,4.5,62.7,30.1l8.1,23.2l-15.5,5.4l5.4,15.5l30.9-10.9 l-13.6-38.7c-11.8-33.6-48.3-51.5-81.9-40.6c-10.6-22-17.4-45.4-20.1-69.7c18.2-11.5,38.6-20.3,60.7-25.8 c17.9,16.3,38.7,26.7,61.4,26.7s43.5-10.4,61.4-26.7c25.8,6.4,49.3,17.3,69.7,31.9c-4.8,21.8-12.8,42.5-24,61.7 c-2.8-0.8-5.7-1.4-8.8-1.4c-18.1,0-32.8,14.7-32.8,32.8s14.7,32.8,32.8,32.8c18.1,0,32.8-14.7,32.8-32.8c0-9.1-3.7-17.3-9.8-23.3 c10.7-18.5,18.7-38.1,24-58.8C451.603,348.1,479.603,418.6,467.903,491.6z M368.203,385.1c0,9-7.4,16.4-16.4,16.4 s-16.4-7.3-16.4-16.4c0-9.1,7.4-16.4,16.4-16.4C360.903,368.7,368.203,376.1,368.203,385.1z"/></symbol><symbol id="auction" viewBox="0 0 511.999 511.999"><title>auction</title><g> <g> <path d="M117.776,174.345c-3.9-3.9-10.24-3.9-14.139,0c-3.91,3.91-3.91,10.24,0,14.14c3.9,3.91,10.24,3.91,14.139,0 C121.685,184.585,121.685,178.255,117.776,174.345z"/> </g> </g><g> <g> <path d="M253.199,447.718c4.409-5.972,6.792-13.167,6.792-20.732c0-19.298-15.7-34.999-34.999-34.999H54.998 c-9.353,0-18.142,3.64-24.749,10.249c-6.61,6.608-10.25,15.397-10.25,24.75c0,7.749,2.536,14.915,6.815,20.72 C10.891,456.078,0,472.778,0,491.983v10c0,5.523,4.478,10,10,10h259.99c5.522,0,10-4.477,10-10v-10 C279.99,472.787,269.11,456.094,253.199,447.718z M44.39,416.376c2.831-2.832,6.599-4.391,10.608-4.391h169.994 c8.271,0,14.999,6.729,14.999,14.999c0,4.01-1.56,7.777-4.392,10.609c-2.831,2.832-6.599,4.391-10.608,4.391H54.998 c-8.271,0-14.999-6.729-14.999-14.999C39.999,422.976,41.558,419.208,44.39,416.376z M19.999,491.983 c0-16.541,13.458-29.999,29.999-29.999h5h169.994h5c16.541,0,29.999,13.458,29.999,29.999H19.999z"/> </g> </g><g> <g> <path d="M502.693,420.124c-3.396-5.263-7.448-9.917-12.045-13.833l-46.725-40.753c-0.364-0.548-0.786-1.068-1.269-1.551 c-0.812-0.811-1.732-1.444-2.71-1.918l-28.257-24.645l-130.79-114.091c5.354-5.597,8.302-12.916,8.302-20.699 c0-8.018-3.121-15.553-8.794-21.225c-2.474-2.471-5.286-4.414-8.291-5.837l12.1-12.1c3.382,0.899,6.857,1.359,10.335,1.359 c10.241-0.001,20.483-3.899,28.279-11.695c7.558-7.557,11.72-17.602,11.72-28.285s-4.162-20.728-11.719-28.285L237.981,11.72 c-7.557-7.557-17.603-11.719-28.289-11.719c-10.681,0-20.724,4.162-28.28,11.719c-10.444,10.444-13.882,25.273-10.336,38.615 L50.351,171.059c-3.336-0.887-6.807-1.355-10.353-1.355c-10.688,0-20.729,4.159-28.28,11.709 c-15.596,15.596-15.596,40.973,0,56.57l84.847,84.848c7.799,7.798,18.042,11.697,28.285,11.697 c10.244,0,20.487-3.899,28.286-11.697c10.444-10.445,13.882-25.273,10.336-38.615l12.075-12.076 c1.451,3.03,3.42,5.826,5.866,8.271c5.666,5.666,13.199,8.787,21.215,8.787c7.775,0,15.091-2.943,20.696-8.291L362.63,440.961 c0.384,0.6,0.832,1.171,1.356,1.695c0.179,0.179,0.369,0.342,0.558,0.504l41.511,47.694c1.032,1.218,2.135,2.416,3.28,3.561 c11.401,11.397,26.46,17.582,42.27,17.582c2.787,0,5.6-0.192,8.417-0.582c18.829-2.606,35.102-13.87,44.644-30.908 C515.119,461.834,514.341,438.127,502.693,420.124z M195.555,25.862c3.779-3.779,8.801-5.861,14.138-5.861 c5.344,0,10.369,2.082,14.147,5.861l84.848,84.847c3.779,3.779,5.86,8.802,5.86,14.143c0,5.341-2.081,10.364-5.861,14.143 c-7.795,7.797-20.481,7.797-28.276,0L195.56,54.144c-0.002-0.002-0.003-0.003-0.005-0.005 C187.758,46.343,187.758,33.658,195.555,25.862z M138.994,308.689c-7.798,7.798-20.489,7.799-28.287,0L25.86,223.842 c-7.799-7.799-7.799-20.487,0-28.287c3.772-3.773,8.794-5.851,14.138-5.851c5.343,0,10.362,2.077,14.133,5.847l84.862,84.862 C146.791,288.208,146.791,300.894,138.994,308.689z M181.096,238.309l-27.961,27.962l-84.856-84.856L181.412,68.28l84.855,84.856 l-28.012,28.013c-0.091,0.086-0.18,0.17-0.276,0.265l-56.538,56.539C181.324,238.068,181.211,238.188,181.096,238.309z M216.802,259.17c-0.02,0.02-0.039,0.039-0.059,0.059l-7.042,7.042c-1.889,1.888-4.4,2.928-7.074,2.928 c-2.673,0-5.185-1.04-7.073-2.929c-1.891-1.89-2.932-4.404-2.932-7.079c0-2.618,0.999-5.081,2.812-6.939l56.801-56.801 c3.893-3.786,10.187-3.739,14.034,0.104c1.89,1.89,2.931,4.404,2.931,7.079c0,2.673-1.038,5.18-2.932,7.069l-7.001,7.001 c-0.048,0.047-0.096,0.095-0.143,0.143L216.802,259.17z M237.51,266.745l29.226-29.226l123.742,107.935l-45.154,45.155 L237.51,266.745z M358.485,405.731l47.099-47.1l15.107,13.177l-49.045,49.046L358.485,405.731z M487.217,470.737 c-6.454,11.523-17.365,19.128-29.936,20.868c-12.542,1.736-24.865-2.395-33.807-11.333c-0.769-0.768-1.505-1.569-2.191-2.381 c-0.032-0.038-0.064-0.076-0.097-0.113l-36.38-41.802l50.991-50.992l41.75,36.417c0.031,0.028,0.063,0.055,0.096,0.083 c3.125,2.657,5.898,5.848,8.251,9.494C493.456,442.663,493.986,458.643,487.217,470.737z"/> </g> </g><g> <g> <path d="M188.484,103.636c-3.906-3.905-10.236-3.905-14.142,0l-42.428,42.428c-3.905,3.905-3.905,10.237,0,14.141 c1.953,1.953,4.512,2.929,7.071,2.929c2.559,0,5.118-0.977,7.071-2.929l42.428-42.428 C192.389,113.873,192.389,107.542,188.484,103.636z"/> </g> </g></symbol><symbol id="balance" viewBox="0 0 480.004 480.004"><title>balance</title><path d="M479.202,292.692l0.072-0.024l-78.808-171.952l19.112-9.512l-7.152-14.32l-18.632,9.28l-2.52-5.496 c-1.842-4.016-6.59-5.779-10.606-3.938c-1.742,0.799-3.139,2.196-3.938,3.938l-2.248,4.912c-13.56-6.298-28.329-9.566-43.28-9.576 h-67.2v-16h16v-16H266.25l5.752-23.016c4.416-17.673-6.33-35.58-24.003-39.997c-17.673-4.416-35.58,6.33-39.997,24.003 c-1.312,5.25-1.312,10.743,0,15.993l5.752,23.016h-13.752v16h16v16h-67.16c-14.966,0.012-29.75,3.288-43.32,9.6l-2.248-4.912 c-1.841-4.016-6.59-5.779-10.606-3.938c-1.742,0.799-3.139,2.196-3.938,3.938l-2.52,5.496l-18.632-9.32l-7.152,14.336 l19.112,9.552L0.73,292.668c-0.486,1.045-0.734,2.184-0.728,3.336c0.035,30.913,25.087,55.965,56,56h80 c30.913-0.035,55.965-25.087,56-56c-0.02-1.149-0.293-2.28-0.8-3.312l-79.024-172.6c11.487-5.332,24-8.092,36.664-8.088h67.16 v292.688l-27.312,27.312h-28.688c-22.08,0.026-39.974,17.92-40,40c0,4.418,3.582,8,8,8h224c4.418,0,8-3.582,8-8 c-0.026-22.08-17.92-39.974-40-40h-28.688l-27.312-27.312V112.004h67.2c12.664-0.004,25.177,2.756,36.664,8.088L288.73,292.668 c-0.486,1.045-0.734,2.184-0.728,3.336c0.035,30.913,25.087,55.965,56,56h80c30.913-0.035,55.965-25.087,56-56 C479.983,294.855,479.71,293.724,479.202,292.692z M136.002,336.004h-80c-19.002-0.021-35.375-13.387-39.2-32h158.4 C171.378,322.617,155.004,335.983,136.002,336.004z M171.538,288.004H20.466l73.488-160.328c1.342,0.36,2.754,0.36,4.096,0 L171.538,288.004z M226.618,22.532c6.23-7.392,17.273-8.333,24.665-2.103c0.759,0.64,1.463,1.344,2.103,2.103 c3.236,4.116,4.379,9.5,3.096,14.576l-6.728,26.896H230.25l-6.728-26.896C222.239,32.032,223.383,26.648,226.618,22.532z M232.002,96.004v-16h16v16H232.002z M248.002,112.004v288h-16v-288H248.002z M320.002,448.004 c10.168,0.012,19.229,6.418,22.632,16H137.37c3.403-9.582,12.464-15.988,22.632-16H320.002z M268.69,432.004h-57.376l16-16h25.376 L268.69,432.004z M381.938,127.7c1.321,0.465,2.77,0.405,4.048-0.168l73.552,160.472H308.466L381.938,127.7z M424.002,336.004h-80 c-19.002-0.021-35.375-13.387-39.2-32h158.4C459.378,322.617,443.004,335.983,424.002,336.004z"/></symbol><symbol id="ads" viewBox="0 0 512 512.00265"><title>ads</title><path d="m197.273438 237.882812c-.089844.21875-9.148438 21.628907-40.691407 21.628907-31.402343 0-42.558593-21.105469-43.082031-22.136719-1.828125-3.695312-6.300781-5.222656-10.007812-3.410156-3.722657 1.816406-5.269532 6.308594-3.449219 10.03125.605469 1.246094 15.371093 30.515625 56.539062 30.515625 41.527344 0 54.074219-29.71875 54.589844-30.984375 1.558594-3.839844-.289063-8.214844-4.125-9.773438-3.84375-1.554687-8.214844.289063-9.773437 4.128906zm0 0"/><path d="m504.5 296.367188c4.144531 0 7.5-3.359376 7.5-7.5v-24.363282c0-4.144531-3.355469-7.5-7.5-7.5h-29.324219c-.332031-.605468-.585937-1.15625-.707031-1.609375-.355469-1.328125-.230469-3.585937-.109375-5.769531.238281-4.273438.535156-9.59375-2.234375-14.382812-2.804688-4.847657-7.59375-7.253907-11.445312-9.1875-1.921876-.96875-3.914063-1.96875-4.835938-2.890626-.925781-.925781-1.925781-2.914062-2.890625-4.839843-1.9375-3.847657-4.34375-8.640625-9.1875-11.441407-4.792969-2.769531-10.109375-2.476562-14.382813-2.238281-2.1875.121094-4.445312.246094-5.769531-.105469-1.1875-.316406-3.003906-1.511718-4.757812-2.667968-3.632813-2.390625-8.148438-5.367188-13.855469-5.367188-5.703125 0-10.222656 2.976563-13.855469 5.367188-1.753906 1.15625-3.570312 2.351562-4.753906 2.667968-1.328125.355469-3.585937.230469-5.769531.105469-4.277344-.234375-9.59375-.53125-14.382813 2.238281-4.847656 2.804688-7.253906 7.59375-9.1875 11.441407-.96875 1.925781-1.96875 3.914062-2.890625 4.839843-.925781.921876-2.914062 1.921876-4.839844 2.890626-3.847656 1.933593-8.640624 4.34375-11.441406 9.1875-2.773437 4.789062-2.476562 10.109374-2.238281 14.382812.121094 2.183594.246094 4.441406-.105469 5.769531-.121094.457031-.375 1.007813-.707031 1.609375h-30.328125c-4.140625 0-7.5 3.355469-7.5 7.5v92.640625c-3.65625-1.394531-7.570312-2.140625-11.578125-2.140625-4.042969 0-7.84375 1.585938-10.703125 4.464844-2.847656 2.867188-4.417969 6.679688-4.417969 10.726562v27.898438c-18.253906-18.683594-41.808593-29.089844-66.960937-29.089844h-10.339844v-43.691406c20.601562-7.03125 38.976562-19.855469 52.964844-37.445312 2.578125-3.242188 2.042968-7.960938-1.199219-10.539063s-7.960937-2.042969-10.539063 1.203125c-13.199218 16.597656-30.882812 28.328125-50.660156 34.035156-.117187.027344-.234375.058594-.347656.09375-8.871094 2.523438-18.15625 3.84375-27.648438 3.84375h-.140624c-55.375 0-100.429688-45.054687-100.429688-100.429687v-32.03125c2.3125-.738281 4.507812-1.886719 6.480469-3.457031 17.1875-13.601563 24.152343-44.109376 26.777343-61.085938.167969-1.101562 1.03125-1.949219 2.136719-2.101562 15.667969-2.183594 54.96875-8.886719 81.507813-24.011719 8.90625-5.074219 20.132812-3.484375 27.308594 3.859375 6.15625 6.300781 13.523437 12.191406 21.898437 17.515625.664063.421875 1.105469 1.082031 1.207031 1.808593 1.980469 14.339844 8.605469 49.285157 27.207032 64.007813 1.976562 1.570313 4.167968 2.730469 6.476562 3.46875v32.027344c0 12.671875-2.328125 25.023437-6.917969 36.710937-1.515625 3.851563.382813 8.207032 4.238281 9.722656.902344.351563 1.828126.519532 2.742188.519532 2.992188 0 5.820312-1.804688 6.980469-4.757813 5.203125-13.242187 7.875-27.21875 7.953125-41.550781 2.214844.507812 4.46875.785156 6.746094.785156 19.273437 0 33.261718-20.644531 33.261718-49.089844 0-21.859374-8.714844-37.414062-23.164062-42.292968-.371094-7.835938-1.242188-13.667969-1.589844-15.769532.066406-4.304687-.148438-23.5625-8.394531-43.417968-8.449219-20.355469-26.984375-44.921875-67.410157-48.277344-7.269531-8.636719-31.15625-26.5-99.929687-14.804688-33.660156 5.734376-59.199219 26.144532-73.84375 59.027344-10.046875 22.550782-11.660156 43.488282-11.871094 47.183594-.308593 1.804688-1.25 7.824219-1.640625 16.0625-14.445312 4.875-23.160156 20.433594-23.160156 42.289062 0 28.445313 13.988281 49.089844 33.261719 49.089844 2.277343 0 4.53125-.277344 6.746093-.785156.277344 50.273438 32.855469 93.035156 77.992188 108.550781v43.734375h-10.339844c-26.050781 0-50.75 11.316406-69.554687 31.863282-2.796875 3.054687-2.585938 7.800781.46875 10.597656 1.4375 1.316406 3.253906 1.96875 5.0625 1.96875 2.03125 0 4.054687-.820313 5.535156-2.4375 15.925781-17.40625 36.699219-26.992188 58.488281-26.992188h.90625c1.441406 10.082032 6.070313 19.394532 13.398438 26.722656 8.960937 8.960938 20.871094 13.898438 33.535156 13.898438 23.839844 0 43.617188-17.683594 46.925781-40.621094h.914063c25.757812 0 49.667968 13.210938 66.023437 36.359375-1.097656 4.714844-3.171875 9.1875-6.101562 13.0625-6.527344 8.625-10.121094 19.234375-10.121094 29.878907 0 1.929687.121094 3.886718.355469 5.808593 1.398437 11.417969 5.808594 20.828125 12.886718 27.890625h-244.382812v-12.929687c0-16.8125 3.644531-33.441407 10.53125-48.082031 1.765625-3.75.15625-8.21875-3.59375-9.980469-3.746094-1.765625-8.214844-.15625-9.976562 3.59375-7.824219 16.625-11.960938 35.460937-11.960938 54.46875v20.429687c0 4.140625 3.359375 7.5 7.5 7.5h282c1.054688 0 2.054688-.21875 2.964844-.613281.925781.105469 1.859375.195313 2.800781.273437.707031.21875 1.457031.339844 2.234375.339844h200c4.140625 0 7.5-3.359375 7.5-7.5v-184.75c0-4.144531-3.359375-7.5-7.5-7.5s-7.5 3.355469-7.5 7.5v177.246094h-185v-224.996094h15.625c-.078125.648438-.125 1.316406-.125 2 0 5.703125 2.976562 10.222656 5.367188 13.851563 1.15625 1.757812 2.351562 3.570312 2.667968 4.757812.351563 1.328125.226563 3.585938.105469 5.769531-.238281 4.273438-.535156 9.59375 2.238281 14.382813 2.804688 4.847656 7.59375 7.253906 11.441406 9.1875 1.925782.964844 3.914063 1.964844 4.839844 2.890625.921875.925781 1.921875 2.914062 2.890625 4.839844 1.933594 3.847656 4.339844 8.640625 9.1875 11.441406 4.789063 2.769531 10.109375 2.476562 14.382813 2.238281 2.183594-.121093 4.441406-.246093 5.769531.105469 1.1875.316406 3 1.511719 4.757813 2.667969 3.628906 2.390625 8.148437 5.363281 13.855468 5.363281 5.703125 0 10.222656-2.972656 13.851563-5.363281 1.753906-1.15625 3.570312-2.351563 4.757812-2.667969 1.328125-.355469 3.585938-.226562 5.769531-.105469 4.273438.234375 9.59375.53125 14.382813-2.238281 4.84375-2.804688 7.253906-7.59375 9.1875-11.441406.964844-1.925782 1.964844-3.914063 2.890625-4.839844s2.914062-1.925781 4.839844-2.890625c3.847656-1.933594 8.640625-4.34375 11.441406-9.1875 2.769531-4.789063 2.476562-10.109375 2.234375-14.382813-.121094-2.183593-.246094-4.441406.109375-5.769531.316406-1.1875 1.511719-3 2.667969-4.757812 2.390625-3.628907 5.363281-8.148438 5.363281-13.851563 0-.683594-.042969-1.351562-.121094-2h14.621094v16.863282c0 4.140624 3.359375 7.5 7.5 7.5zm-208.5-127.953126c0 16.757813-6.828125 34.089844-18.257812 34.089844-2.316407 0-4.570313-.53125-6.742188-1.558594v-17.898437c5.011719-2.324219 8.988281-6.550781 10.949219-11.789063 3.457031-9.25 5.085937-19.078124 5.71875-28.113281 6.011719 5.320313 8.332031 15.65625 8.332031 25.269531zm-256.359375-56.140624c.066406-.34375.105469-.703126.121094-1.050782.007812-.207031 1.007812-20.910156 10.800781-42.660156 12.710938-28.230469 33.730469-45.027344 62.472656-49.921875 15.320313-2.605469 28.03125-3.632813 38.5625-3.632813 37.527344 0 47.269532 13.066407 48.125 14.339844 1.128906 2.601563 3.449219 3.90625 6.300782 4.050782 67.195312 3.320312 65.328124 74.203124 65.214843 77.207031-.023437.558593.019531 1.117187.121094 1.667969.027344.15625 1.519531 8.457031 1.636719 19.734374 0 .125.003906.246094.007812.367188.078125 10.101562-.957031 22.523438-5.109375 33.628906v.003906c-.695312 1.867188-2.199219 3.242188-4.125 3.777344-.273437.074219-.613281.148438-1 .1875-.011719 0-.027343 0-.039062 0-1.078125.105469-2.507813-.054687-3.886719-1.144531-14.75-11.679687-20.316406-44.523437-21.667969-54.3125-.707031-5.101563-3.628906-9.625-8.019531-12.414063-7.402344-4.703124-13.867188-9.863281-19.214844-15.335937-11.9375-12.226563-30.632812-14.859375-45.464844-6.410156-24.28125 13.835937-61.339843 20.125-76.148437 22.183593-7.71875 1.074219-13.703125 6.972657-14.894531 14.671876-3.835938 24.820312-11.78125 44.113281-21.269532 51.625-1.328124 1.054687-2.710937 1.230468-3.773437 1.144531-.097656-.011719-.195313-.019531-.292969-.027344-.324218-.039063-.613281-.101563-.847656-.167969-1.925781-.535156-3.429688-1.910156-4.128906-3.785156-8.839844-23.605469-3.53125-53.433594-3.480469-53.726562zm-24.640625 56.140624c0-9.613281 2.324219-19.953124 8.335938-25.273437.636718 9.039063 2.269531 18.867187 5.734374 28.113281 1.953126 5.238282 5.925782 9.460938 10.929688 11.785156v17.90625c-2.167969 1.027344-4.421875 1.558594-6.738281 1.558594-11.429688 0-18.261719-17.332031-18.261719-34.089844zm140.5 241.207032c-8.65625 0-16.796875-3.375-22.925781-9.503906-4.695313-4.691407-7.769531-10.570313-8.949219-16.960938 5.460938-1.980469 9.375-7.222656 9.375-13.363281v-40.484375c7.257812 1.433594 14.757812 2.195312 22.429688 2.195312h.140624c7.617188 0 15.121094-.742187 22.429688-2.175781v40.464844c0 6.136719 3.910156 11.378906 9.375 13.359375-2.804688 15.046875-16.03125 26.46875-31.875 26.46875zm119.722656 32.855468c4.941406-6.535156 8.199219-14.246093 9.445313-22.273437.003906-.015625.007812-.03125.011719-.046875.015624-.105469.039062-.207031.054687-.308594.375-2.4375.566406-4.9375.566406-7.4375v-42.21875c0-.035156 0-.089844.121094-.1875 4.292969 0 8.386719 1.589844 11.578125 4.398438v121.457031c-17.269531-3.125-26.644531-12.464844-28.613281-28.570313-.164063-1.320312-.246094-2.664062-.246094-3.988281 0-7.394531 2.515625-14.789062 7.082031-20.824219zm189.382813-162.867187c-1.726563 2.625-3.683594 5.597656-4.628907 9.132813-.972656 3.640624-.769531 7.269531-.59375 10.472656.121094 2.164062.285157 5.125-.242187 6.039062-.5625.964844-3.238281 2.3125-5.195313 3.296875-2.847656 1.429688-6.074218 3.050781-8.710937 5.6875-2.632813 2.632813-4.257813 5.859375-5.6875 8.710938-.980469 1.953125-2.328125 4.632812-3.292969 5.191406-.917968.527344-3.878906.363281-6.039062.242187-3.203125-.175781-6.835938-.378906-10.476563.59375-3.53125.945313-6.507812 2.902344-9.132812 4.632813-1.957031 1.289063-4.394531 2.894531-5.605469 2.894531-1.207031 0-3.644531-1.605468-5.601562-2.894531-2.625-1.730469-5.601563-3.6875-9.136719-4.632813-2.160157-.578124-4.320313-.742187-6.386719-.742187-1.414062 0-2.785156.078125-4.085938.148437-2.160156.125-5.121093.285157-6.039062-.242187-.964844-.558594-2.3125-3.238281-3.292969-5.195313-1.433593-2.847656-3.054687-6.074218-5.691406-8.710937-2.632813-2.632813-5.859375-4.253906-8.707031-5.683594-1.957032-.984375-4.636719-2.332031-5.195313-3.296875-.527343-.914062-.363281-3.875-.242187-6.039062.175781-3.203125.378906-6.832032-.59375-10.472656-.945313-3.535157-2.902344-6.507813-4.632813-9.132813-1.289062-1.960937-2.890625-4.394531-2.890625-5.605469 0-1.148437 1.4375-3.394531 2.6875-5.292968.007813-.011719.015625-.023438.023438-.039063.0625-.089844.121094-.183594.179687-.273437 1.730469-2.625 3.6875-5.601563 4.632813-9.132813.972656-3.640625.769531-7.273437.59375-10.476563-.121094-2.160156-.285156-5.121093.242187-6.035156.5625-.96875 3.238281-2.3125 5.195313-3.296875 2.847656-1.429687 6.074218-3.054687 8.710937-5.6875 2.632813-2.632812 4.253907-5.863281 5.6875-8.710937.980469-1.957032 2.328125-4.636719 3.292969-5.191406.914062-.53125 3.875-.367188 6.039062-.246094 3.203126.179687 6.832032.382812 10.476563-.59375 3.53125-.941406 6.507813-2.902344 9.132813-4.628906 1.957031-1.289063 4.394531-2.894532 5.605468-2.894532 1.207032 0 3.644532 1.605469 5.601563 2.894532 2.625 1.726562 5.601562 3.683593 9.136719 4.632812 3.640624.96875 7.269531.769531 10.472656.589844 2.164062-.121094 5.125-.285156 6.039062.246094.964844.558593 2.3125 3.238281 3.296875 5.191406 1.429688 2.847656 3.050781 6.074218 5.6875 8.710937 2.632813 2.636719 5.859375 4.257813 8.707031 5.6875 1.957032.984375 4.636719 2.328125 5.195313 3.296875.527344.914063.363281 3.875.242187 6.035156-.175781 3.203126-.378906 6.835938.59375 10.476563.945313 3.53125 2.902344 6.507813 4.632813 9.132813.058594.089843.117187.183593.179687.273437.007813.015625.015626.027344.023438.039063 1.25 1.898437 2.691406 4.144531 2.691406 5.292968-.003906 1.210938-1.605468 3.644532-2.898437 5.605469zm0 0"/><path d="m390.136719 251.640625c0 4.144531-3.355469 7.5-7.5 7.5-4.140625 0-7.5-3.355469-7.5-7.5 0-4.140625 3.359375-7.5 7.5-7.5 4.144531 0 7.5 3.359375 7.5 7.5zm0 0"/><path d="m434.863281 296.367188c0 4.140624-3.355469 7.5-7.5 7.5-4.140625 0-7.5-3.359376-7.5-7.5 0-4.144532 3.359375-7.5 7.5-7.5 4.144531 0 7.5 3.355468 7.5 7.5zm0 0"/><path d="m422.410156 245.988281-45.421875 45.421875c-2.929687 2.929688-2.929687 7.679688 0 10.609375 1.464844 1.460938 3.382813 2.195313 5.300781 2.195313 1.921876 0 3.839844-.734375 5.304688-2.195313l45.421875-45.425781c2.929687-2.929688 2.929687-7.675781 0-10.605469-2.929687-2.925781-7.679687-2.925781-10.605469 0zm0 0"/><path d="m475 365.503906h-140c-4.140625 0-7.5 3.355469-7.5 7.5 0 4.140625 3.359375 7.5 7.5 7.5h140c4.144531 0 7.5-3.359375 7.5-7.5 0-4.144531-3.355469-7.5-7.5-7.5zm0 0"/><path d="m475 395.503906h-140c-4.140625 0-7.5 3.355469-7.5 7.5 0 4.140625 3.359375 7.5 7.5 7.5h140c4.144531 0 7.5-3.359375 7.5-7.5 0-4.144531-3.355469-7.5-7.5-7.5zm0 0"/><path d="m482.5 433.003906c0-4.144531-3.355469-7.5-7.5-7.5h-140c-4.140625 0-7.5 3.355469-7.5 7.5 0 4.140625 3.359375 7.5 7.5 7.5h140c4.144531 0 7.5-3.359375 7.5-7.5zm0 0"/><path d="m335 455.5c-4.140625 0-7.5 3.359375-7.5 7.5 0 4.144531 3.359375 7.5 7.5 7.5h35.6875c4.144531 0 7.5-3.355469 7.5-7.5 0-4.140625-3.355469-7.5-7.5-7.5zm0 0"/></symbol><symbol id="heart" viewBox="0 0 420.8 420.8"><title>heart</title><path d="M413.6,204H378c14.8-33.6,13.2-60.8,7.6-79.2c-9.6-32.8-42-68.4-90-68.4c-12.8,0-25.6,2.4-38.8,7.2 C234,72,218.8,81.2,212,86c-6.8-4.8-21.6-14-44.8-22.4c-13.2-4.8-26.4-7.2-38.8-7.2c-48,0-80.4,35.6-90,68.4 c-5.6,19.6-7.6,49.2,11.2,86.4H6.4c-3.6,0-6.4,2.8-6.4,6.4c0,3.6,2.8,6.4,6.4,6.4h50.8c2,3.6,4.4,7.2,7.2,10.8 c41.6,60,132,125.2,148.4,129.2v0.4c0,0,0.4,0,0.8-0.4c0.4,0,0.8,0,1.2,0v-0.4c14-6.8,100.8-62.8,146.4-129.2c4.4-6,8-12,11.2-18 h42c3.6,0,6.4-2.8,6.4-6.4C420.8,206.4,417.2,204,413.6,204z M349.6,227.6c-42.4,62-120.4,112-137.2,122.8 c-17.2-10.8-94.8-61.2-137.6-122.8c-0.8-1.2-1.6-2.4-2.4-3.6h58.8c2.4,0,4.8-1.2,6-3.6l26.8-52.8l42,107.6c0.8,2.4,3.6,4,6,4 c0,0,0,0,0.4,0c2.8,0,5.2-2,6-4.8l36.8-126l19.6,63.6c0.8,2.4,2.8,4,5.2,4.4c2.4,0.4,4.8-0.8,6.4-2.8l15.6-22.8l13.2,22.4 c1.2,2,3.2,3.2,5.6,3.2h36C354.4,220.4,352,224,349.6,227.6z M364,204h-39.2l-16.4-28c-1.2-2-3.2-3.2-5.6-3.2 c-2.4,0-4.4,0.8-5.6,2.8l-13.6,20l-22-71.6c-0.8-2.8-3.6-4.4-6.4-4.8c-2.8,0-5.6,2-6.4,4.8l-37.2,128.4l-40.4-103.2 c-0.8-2.4-3.2-4-5.6-4c-2.8,0-4.8,1.2-6,3.6l-31.6,62H64.4c-16-29.2-20.4-57.2-13.2-82.4c8.4-28.4,36-58.8,77.6-58.8 c11.2,0,22.8,2.4,34.4,6.4c29.2,10.8,44.8,23.2,45.2,23.2c2.4,2,5.6,2,8,0c0,0,15.6-12.4,45.2-23.2c11.6-4.4,23.2-6.4,34.4-6.4 c41.2,0,69.2,30.4,77.6,58.8C380.4,151.6,376.8,177.2,364,204z"/></symbol><symbol id="analyze" viewBox="0 0 480.204 480.204"><title>analyze</title><g> <g> <path d="M475.07,375.826l-11.047-4.875c-0.43-1.547-0.898-3.031-1.398-4.477l6.156-10.609c1.414-2.446,1.438-5.454,0.063-7.922 c-3.238-5.767-7.1-11.161-11.516-16.086c-1.935-2.177-4.905-3.122-7.742-2.461l-11.625,2.656 c-1.141-0.891-2.313-1.755-3.516-2.594l-1.125-12.328c-0.258-2.845-2.016-5.335-4.609-6.531c-5.93-2.77-12.154-4.859-18.555-6.227 c-2.852-0.608-5.808,0.393-7.703,2.609l-8.141,9.453h-3.906l-8.141-9.453c-1.89-2.224-4.851-3.227-7.703-2.609 c-6.4,1.368-12.625,3.456-18.555,6.227c-2.594,1.196-4.351,3.687-4.609,6.531l-1.125,12.328c-1.203,0.836-2.375,1.7-3.516,2.594 l-11.625-2.656c-2.837-0.657-5.805,0.287-7.742,2.461c-4.417,4.924-8.276,10.322-11.508,16.094 c-1.375,2.465-1.352,5.471,0.062,7.914l6.148,10.602c-0.5,1.445-0.966,2.94-1.398,4.484l-11.047,4.875 c-2.902,1.277-4.775,4.149-4.773,7.32v18.109c-0.002,3.171,1.871,6.043,4.773,7.32l11.047,4.875 c0.43,1.547,0.898,3.031,1.398,4.477l-6.156,10.61c-1.414,2.445-1.438,5.454-0.063,7.922c3.238,5.767,7.1,11.161,11.516,16.086 c1.937,2.178,4.911,3.123,7.75,2.461l11.609-2.664c1.141,0.898,2.32,1.766,3.523,2.602l1.125,12.328 c0.258,2.845,2.016,5.335,4.609,6.531c5.93,2.77,12.154,4.859,18.555,6.227c2.852,0.606,5.807-0.395,7.703-2.609l8.141-9.453 h3.906l8.141,9.453c1.519,1.767,3.733,2.783,6.063,2.781c0.551,0.001,1.101-0.057,1.641-0.172 c6.401-1.368,12.625-3.456,18.555-6.227c2.594-1.196,4.351-3.687,4.609-6.531l1.125-12.328c1.203-0.836,2.375-1.701,3.516-2.594 l11.625,2.656c2.837,0.662,5.808-0.283,7.742-2.461c4.415-4.924,8.277-10.319,11.516-16.086c1.375-2.468,1.351-5.476-0.063-7.922 l-6.156-10.609c0.5-1.445,0.969-2.93,1.398-4.477l11.047-4.875c2.902-1.277,4.775-4.149,4.773-7.32v-18.11 C479.845,379.976,477.972,377.103,475.07,375.826z M453.992,400.389c-2.318,1.019-4.014,3.077-4.57,5.547 c-0.731,3.295-1.74,6.523-3.016,9.648c-0.954,2.306-0.781,4.925,0.469,7.086l5.695,9.813c-1.289,2-2.68,3.948-4.172,5.844 l-10.719-2.453c-2.509-0.586-5.146,0.084-7.07,1.797c-2.492,2.186-5.162,4.159-7.984,5.898c-2.14,1.322-3.535,3.573-3.766,6.078 l-1.039,11.422c-2.148,0.844-4.305,1.578-6.453,2.188l-7.328-8.508c-1.52-1.765-3.733-2.78-6.062-2.781h-11.234 c-2.329,0.001-4.542,1.017-6.062,2.781l-7.328,8.508c-2.148-0.609-4.305-1.344-6.453-2.188l-1.039-11.422 c-0.231-2.505-1.625-4.756-3.766-6.078c-2.821-1.737-5.489-3.711-7.977-5.898c-1.934-1.708-4.571-2.38-7.086-1.805l-10.711,2.453 c-1.492-1.883-2.883-3.836-4.172-5.836l5.695-9.813c1.249-2.161,1.423-4.779,0.469-7.086c-1.276-3.125-2.285-6.353-3.016-9.648 c-0.557-2.47-2.253-4.528-4.57-5.547l-9.852-4.344v-7.688l9.852-4.344c2.318-1.019,4.014-3.077,4.57-5.547 c0.732-3.3,1.741-6.533,3.016-9.664c0.954-2.304,0.781-4.92-0.469-7.078l-5.688-9.813c1.281-1.992,2.672-3.945,4.164-5.836 l10.719,2.453c2.509,0.577,5.142-0.092,7.07-1.797c2.492-2.186,5.162-4.159,7.984-5.898c2.14-1.322,3.535-3.573,3.766-6.078 l1.039-11.422c2.148-0.844,4.305-1.578,6.453-2.188l7.328,8.508c1.52,1.765,3.733,2.78,6.063,2.781h11.234 c2.329-0.001,4.542-1.017,6.063-2.781l7.328-8.508c2.148,0.609,4.305,1.344,6.453,2.188l1.039,11.422 c0.231,2.505,1.626,4.756,3.766,6.078c2.822,1.739,5.492,3.712,7.984,5.898c1.928,1.706,4.562,2.375,7.07,1.797l10.719-2.453 c1.492,1.891,2.883,3.838,4.172,5.844l-5.695,9.813c-1.249,2.161-1.423,4.779-0.469,7.086c1.276,3.125,2.285,6.353,3.016,9.648 c0.557,2.47,2.253,4.528,4.57,5.547l9.852,4.344l0,7.688L453.992,400.389z"/> </g> </g><g> <g> <path d="M392.359,352.201c-22.091,0-40,17.909-40,40c0,22.091,17.909,40,40,40c22.091,0,40-17.909,40-40 C432.333,370.121,414.44,352.227,392.359,352.201z M392.359,416.201c-13.255,0-24-10.745-24-24s10.745-24,24-24s24,10.745,24,24 C416.344,405.45,405.608,416.187,392.359,416.201z"/> </g> </g><g> <g> <path d="M224.359,32.201c-66.274,0-120,53.726-120,120c0.072,66.244,53.756,119.928,120,120c66.274,0,120-53.726,120-120 S290.633,32.201,224.359,32.201z M124.682,181.849c-16.385-55.039,14.95-112.94,69.989-129.326 c9.635-2.868,19.635-4.324,29.688-4.322c10.041,0.009,20.027,1.479,29.645,4.362c-1.954,1.288-3.986,2.534-5.793,3.896 c-2.737,2.061-3.858,5.636-2.789,8.891l3.672,11.18c-1.508,1.422-2.984,2.898-4.406,4.406l-11.172-3.672 c-3.251-1.051-6.811,0.064-8.883,2.781c-5.911,7.763-10.852,16.218-14.711,25.18c-1.344,3.152-0.53,6.809,2.023,9.094l8.898,7.969 c-0.609,1.992-1.148,4-1.625,6.008l-11.594,2.438c-3.701,0.78-6.351,4.045-6.352,7.828v27.281c0.001,3.783,2.65,7.048,6.352,7.828 l11.594,2.438c0.477,2.008,1.016,4.016,1.617,6.008l-8.891,7.969c-2.553,2.285-3.367,5.942-2.023,9.094 c3.859,8.956,8.794,17.408,14.695,25.172c2.061,2.737,5.636,3.859,8.891,2.789l11.18-3.672c1.422,1.508,2.898,2.984,4.406,4.406 l-3.672,11.172c-1.066,3.251,0.051,6.82,2.781,8.883c1.808,1.366,3.846,2.618,5.805,3.91 C198.968,268.224,141.067,236.889,124.682,181.849z M272.561,244.271c-3.465-1.768-6.834-3.719-10.093-5.843l3.461-10.531 c1.016-3.097,0.055-6.501-2.43-8.609c-3.691-3.122-7.117-6.545-10.242-10.234c-2.111-2.476-5.508-3.432-8.602-2.422l-10.563,3.477 c-2.623-3.854-4.985-7.878-7.07-12.047l8.391-7.523c2.429-2.174,3.297-5.604,2.195-8.672c-1.64-4.53-2.897-9.19-3.758-13.93 c-0.579-3.203-3.041-5.737-6.227-6.406l-10.352-2.18v-14.297l10.352-2.18c3.186-0.67,5.648-3.203,6.227-6.406 c0.864-4.745,2.121-9.409,3.758-13.946c1.102-3.066,0.233-6.493-2.195-8.664l-8.391-7.515c2.087-4.168,4.449-8.193,7.07-12.047 l10.57,3.477c3.097,1.008,6.496,0.049,8.609-2.43c3.122-3.691,6.545-7.117,10.234-10.242c2.479-2.11,3.436-5.509,2.422-8.602 l-3.461-10.531c3.26-2.12,6.628-4.068,10.091-5.836c10.938,5.775,20.763,13.445,29.02,22.655 c-38.337,10.306-61.061,49.739-50.755,88.076c6.656,24.759,25.996,44.099,50.755,50.755 C293.323,230.826,283.498,238.496,272.561,244.271z M264.929,144.244c3.531-24.539,22.809-43.817,47.348-47.348 c21.443,33.752,21.443,76.858,0,110.61C281.732,203.112,260.534,174.788,264.929,144.244z"/> </g> </g><g> <g> <path d="M435.116,136.733l-9.594-4.234c-0.328-1.148-0.672-2.273-1.047-3.375l5.352-9.227c1.414-2.443,1.438-5.449,0.063-7.914 c-2.939-5.24-6.444-10.142-10.453-14.617c-1.939-2.182-4.915-3.129-7.758-2.469l-10.078,2.305 c-0.852-0.656-1.719-1.297-2.602-1.914l-0.984-10.727c-0.266-2.838-2.017-5.321-4.602-6.523 c-5.389-2.523-11.048-4.424-16.867-5.664c-2.758-0.581-5.618,0.337-7.523,2.414l-8.83,9.595 C322.926,9.268,231.821-21.414,156.706,15.853S50.908,144.224,88.175,219.34c2.227,4.489,4.675,8.865,7.335,13.112l-21.401,26.75 c-1.36,1.709-1.967,3.897-1.68,6.062c0.286,2.169,1.453,4.124,3.227,5.406l17.374,12.635L2.148,395.154 c-2.787,3.439-2.258,8.486,1.181,11.273c0.01,0.008,0.02,0.016,0.029,0.024l40,32c3.435,2.741,8.436,2.204,11.211-1.203 l92.908-114.344l16.178,11.766c3.457,2.515,8.281,1.868,10.953-1.469l24.962-31.205c65.836,11.411,131.298-22.019,160.654-82.043 l8.751,9.63c1.517,1.668,3.667,2.618,5.922,2.617c0.551,0.001,1.101-0.057,1.641-0.172c5.822-1.24,11.484-3.141,16.875-5.664 c2.584-1.202,4.336-3.686,4.602-6.523l0.984-10.727c0.883-0.625,1.75-1.266,2.594-1.914l10.086,2.305 c2.843,0.665,5.822-0.283,7.758-2.469c4.005-4.474,7.507-9.373,10.445-14.609c1.381-2.465,1.361-5.476-0.055-7.922l-5.352-9.227 c0.375-1.102,0.719-2.227,1.047-3.375l9.594-4.234c2.902-1.277,4.775-4.149,4.773-7.32v-16.297 C439.891,140.882,438.019,138.01,435.116,136.733z M47.156,420.998L19.648,398.99l86.344-106.258l28.523,20.75L47.156,420.998z M166.882,317.24l-16.133-11.734l-0.91-0.662l-58.004-42.189l13.242-16.542c19.647,24.952,46.603,43.136,77.097,52.008 L166.882,317.24z M224.359,288.201c-75.111,0-136-60.889-136-136c0.084-75.076,60.924-135.916,136-136 c75.111,0,136,60.889,136,136S299.47,288.201,224.359,288.201z M423.89,155.139l-8.383,3.695c-2.318,1.019-4.014,3.077-4.57,5.547 c-0.651,2.929-1.545,5.798-2.672,8.578c-0.954,2.301-0.78,4.915,0.469,7.07l4.875,8.406c-0.977,1.492-2.021,2.953-3.133,4.383 l-9.141-2.094c-2.51-0.589-5.15,0.078-7.078,1.789c-2.214,1.945-4.587,3.701-7.094,5.25c-2.13,1.323-3.518,3.566-3.75,6.063 l-0.898,9.789c-1.633,0.633-3.271,1.188-4.914,1.664l-10.445-11.498c12.288-33.339,12.27-69.969-0.05-103.295l10.472-11.371 c1.641,0.477,3.297,1.039,4.938,1.672l0.898,9.789c0.233,2.5,1.624,4.747,3.758,6.07c2.506,1.544,4.877,3.297,7.086,5.242 c1.93,1.707,4.568,2.374,7.078,1.789l9.141-2.094c1.109,1.43,2.154,2.891,3.133,4.383l-4.875,8.406 c-1.249,2.155-1.422,4.769-0.469,7.07c1.127,2.78,2.021,5.65,2.672,8.578c0.557,2.47,2.253,4.528,4.57,5.547l8.383,3.695V155.139z "/> </g> </g></symbol><symbol id="social-care" viewBox="0 0 512.002 512.002"><title>social-care</title><g> <g> <path d="M109.834,496.21l-15.055-21.206c-3.196-4.504-9.439-5.563-13.943-2.366c-4.503,3.197-5.563,9.439-2.365,13.943 l15.055,21.207c1.95,2.747,5.032,4.212,8.163,4.212c2.002,0,4.023-0.6,5.78-1.847C111.972,506.956,113.032,500.714,109.834,496.21 z"/> </g> </g><g> <g> <path d="M225.206,499.946l-16.384-78.088c-7.967-37.972-30.087-70.806-62.283-92.455l-34.981-23.522 c-14.027-9.43-32.881-7.402-44.605,4.553V189.938c0-15.816-10.783-29.254-26.223-32.681c-9.965-2.214-20.243,0.184-28.204,6.571 c-7.96,6.387-12.525,15.904-12.525,26.11V344.99c0,20.313,6.216,39.806,17.975,56.371l17.833,25.121 c1.95,2.747,5.032,4.212,8.163,4.212c2.002,0,4.023-0.6,5.78-1.847c4.503-3.197,5.563-9.439,2.365-13.943l-17.833-25.121 c-9.344-13.163-14.283-28.652-14.283-44.794V189.938c0-4.108,1.838-7.939,5.042-10.511c3.203-2.571,7.34-3.536,11.354-2.645 c6.215,1.379,10.556,6.789,10.556,13.156v123.016c0,17.414,6.398,34.005,18.021,46.913c0.498,0.597,1.01,1.188,1.551,1.761 c6.641,7.037,14.449,15.329,21.803,23.145l10.295,10.957c0.033,0.035,0.069,0.065,0.103,0.099 c8.807,9.367,15.302,16.284,15.438,16.428c3.779,4.025,10.109,4.225,14.135,0.444s4.225-10.109,0.443-14.135 c-0.182-0.194-11.888-12.659-25.256-26.868l-22.929-24.403c-0.058-0.062-0.111-0.127-0.169-0.189 c-5.376-6.43-5.309-15.753,0.326-22.115c4.985-5.626,13.449-6.706,19.686-2.513L135.379,346 c27.848,18.725,46.979,47.123,53.869,79.965l16.385,78.089c0.989,4.713,5.146,7.948,9.777,7.948c0.68,0,1.371-0.07,2.063-0.215 C222.878,510.653,226.34,505.351,225.206,499.946z"/> </g> </g><g> <g> <path d="M74.089,445.858l-0.064-0.09c-3.21-4.496-9.454-5.54-13.949-2.332s-5.539,9.453-2.332,13.948l0.064,0.09 c1.952,2.735,5.027,4.193,8.149,4.193c2.01,0,4.039-0.604,5.8-1.861C76.251,456.598,77.296,450.353,74.089,445.858z"/> </g> </g><g> <g> <path d="M499.475,163.829c-7.96-6.387-18.243-8.781-28.203-6.571c-15.44,3.426-26.224,16.865-26.224,32.681v120.496 c-11.723-11.955-30.579-13.983-44.605-4.553l-34.981,23.521c-32.197,21.648-54.316,54.483-62.283,92.455l-16.384,78.089 c-1.134,5.405,2.328,10.706,7.733,11.84c0.692,0.145,1.384,0.215,2.063,0.215c4.632,0,8.788-3.236,9.777-7.949l16.384-78.089 c6.891-32.841,26.021-61.24,53.869-79.964l34.981-23.521c6.235-4.194,14.699-3.114,19.686,2.512 c5.628,6.354,5.703,15.662,0.347,22.092c-0.064,0.07-0.125,0.142-0.189,0.212c0,0-48.005,51.079-48.186,51.271 c-3.781,4.026-3.582,10.354,0.443,14.135c4.026,3.781,10.354,3.582,14.135-0.444c0.136-0.144,40.998-43.591,47.639-50.628 c0.541-0.573,1.053-1.164,1.551-1.761c11.622-12.908,18.021-29.499,18.021-46.913V189.938c0-6.367,4.341-11.777,10.557-13.156 c4.013-0.89,8.149,0.075,11.354,2.645c3.204,2.571,5.042,6.402,5.042,10.511V344.99c0,16.142-4.939,31.631-14.283,44.794 l-75.551,106.427c-3.197,4.503-2.138,10.746,2.365,13.943c1.758,1.247,3.778,1.847,5.78,1.847c3.13,0,6.213-1.466,8.163-4.212 l75.551-106.427c11.759-16.565,17.975-36.058,17.975-56.371V189.938C511.999,179.732,507.435,170.216,499.475,163.829z"/> </g> </g><g> <g> <path d="M382.658,191.66l-17.791-4.25v-3.19c11.563-8.1,19.145-21.513,19.145-36.671V124.42c0-24.679-20.077-44.756-44.756-44.756 c-11.075,0-21.215,4.052-29.038,10.74C301.508,69.074,280.55,54,256.126,54c-24.454,0-45.434,15.113-54.124,36.484 c-7.835-6.736-18.012-10.822-29.132-10.822c-24.679,0-44.756,20.077-44.756,44.756v1.537v21.592 c0,15.158,7.582,28.571,19.145,36.671v3.19l-17.791,4.25c-21.242,5.075-36.078,23.872-36.078,45.712v18.676 c0,5.523,4.478,10,10,10h45.952c-0.071,1.213-0.12,2.432-0.12,3.661v35.958c0,5.523,4.478,10,10,10h60.11c5.522,0,10-4.477,10-10 s-4.478-10-10-10H209V275c0-5.523-4.478-10-10-10c-5.522,0-10,4.477-10,10v20.667h-19.777v-25.958 c0-19.287,13.1-35.896,31.854-40.39l27.442-6.576l18.365,41.782c1.596,3.631,5.188,5.976,9.153,5.976h0.001 c3.966,0,7.558-2.344,9.154-5.975l18.346-41.72l27.355,6.535c18.772,4.485,31.883,21.096,31.883,40.397v25.929h-19.777V275 c0-5.523-4.478-10-10-10c-5.522,0-10,4.477-10,10v20.667h-11.333c-5.522,0-10,4.477-10,10s4.478,10,10,10h61.111 c5.522,0,10-4.477,10-10v-35.929c0-1.239-0.05-2.467-0.122-3.69h46.082c5.522,0,10-4.477,10-10v-18.676 C418.737,215.532,403.901,196.734,382.658,191.66z M339.256,99.662c13.102,0,23.858,10.231,24.702,23.123h-13.903 c-11.688,0-23.19-2.814-33.529-8.172C320.329,105.825,329.087,99.662,339.256,99.662z M314.5,146.087 c0.012-0.487,0.037-0.972,0.037-1.462v-8.906c11.221,4.644,23.288,7.066,35.518,7.066h13.957v4.763 c0,13.65-11.105,24.756-24.756,24.756S314.5,161.198,314.5,147.547V146.087z M217.716,112.41L217.716,112.41 c0-21.179,17.23-38.41,38.41-38.41c19.103,0,34.992,14.018,37.926,32.306l-16.835-9.891c-4.211-2.474-9.593-1.545-12.73,2.2 c-8.227,9.818-20.292,15.449-33.102,15.449h-13.669V112.41z M172.871,99.662c10.169,0,18.926,6.164,22.73,14.95 c-10.34,5.358-21.841,8.172-33.529,8.172h-13.903C149.013,109.893,159.77,99.662,172.871,99.662z M148.115,142.784h13.957 c12.243,0,24.323-2.427,35.555-7.081v11.843c0,13.65-11.105,24.756-24.756,24.756s-24.756-11.104-24.756-24.755V142.784z M196.417,209.869c-19.674,4.714-35.136,18.431-42.495,36.178h-40.532v-8.676c0-12.546,8.522-23.345,20.725-26.26l25.468-6.084 c4.501-1.075,7.677-5.098,7.677-9.726v-3.362c1.84,0.231,3.71,0.364,5.611,0.364c1.887,0,3.744-0.131,5.57-0.359v2.853 c-0.007,0.149-0.01,0.298-0.011,0.447c-0.002,3.281,1.611,6.495,4.573,8.411c1.116,0.723,2.322,1.193,3.553,1.428l14.917,3.574 L196.417,209.869z M224.311,194.345c-2.569-1.133-5.247-2.039-8.007-2.7l-17.864-4.281v-3.116 c3.224-2.253,6.139-4.916,8.667-7.918c4.466,6.88,10.334,12.763,17.204,17.244V194.345z M267.743,209.038l-11.702,26.615 l-11.729-26.683v-7.136c3.817,0.787,7.768,1.202,11.814,1.202c3.977,0,7.861-0.403,11.617-1.164V209.038z M256.126,183.035 c-21.18,0.001-38.41-17.23-38.41-38.41v-10.562h13.669c15.858,0,30.936-5.897,42.492-16.415l20.622,12.116v16.324 C293.727,166.591,276.816,183.035,256.126,183.035z M287.743,194.377V193.7c6.926-4.478,12.846-10.376,17.347-17.286 c2.511,2.968,5.401,5.602,8.594,7.834v3.116l-17.865,4.281C293.035,192.313,290.334,193.23,287.743,194.377z M398.736,246.047 h-40.67c-7.366-17.747-22.839-31.456-42.525-36.159l-5.021-1.199l14.997-3.594c1.248-0.232,2.474-0.708,3.605-1.44 c2.957-1.913,4.565-5.127,4.565-8.408c0-0.078-0.001-0.157-0.003-0.235v-3.068c1.827,0.228,3.683,0.359,5.57,0.359 c1.901,0,3.771-0.133,5.611-0.364v3.362c0,4.628,3.176,8.651,7.677,9.726l25.468,6.084c12.203,2.916,20.726,13.714,20.726,26.26 V246.047z"/> </g> </g><g> <g> <path d="M263.069,298.59c-1.869-1.86-4.439-2.92-7.069-2.92c-2.641,0-5.21,1.06-7.07,2.92c-1.87,1.87-2.93,4.44-2.93,7.08 c0,2.63,1.06,5.2,2.93,7.07c1.86,1.86,4.43,2.93,7.07,2.93c2.63,0,5.2-1.07,7.069-2.93c1.86-1.87,2.931-4.44,2.931-7.07 C266,303.03,264.93,300.46,263.069,298.59z"/> </g> </g><g> <g> <path d="M255.993,0c-5.522,0-10,4.477-10,10v14.963c0,5.523,4.478,10,10,10c5.522,0,10-4.477,10-10V10 C265.993,4.477,261.516,0,255.993,0z"/> </g> </g><g> <g> <path d="M219.157,32.619l-10.49-10.48c-3.907-3.904-10.238-3.901-14.142,0.006c-3.904,3.907-3.9,10.239,0.007,14.142l10.491,10.48 c1.952,1.951,4.51,2.926,7.067,2.926c2.561,0,5.121-0.978,7.074-2.932C223.066,42.854,223.064,36.522,219.157,32.619z"/> </g> </g><g> <g> <path d="M317.222,22.395c-3.907-3.903-10.24-3.901-14.142,0.007l-10.409,10.419c-3.903,3.907-3.9,10.239,0.007,14.142 c1.953,1.951,4.51,2.926,7.068,2.926c2.561,0,5.122-0.978,7.074-2.933l10.409-10.419C321.132,32.63,321.129,26.298,317.222,22.395 z"/> </g> </g></symbol><symbol id="help" viewBox="0 0 511.993 511.993"><title>help</title><g> <g> <circle cx="124.208" cy="153.079" r="34.791"/> </g> </g><g> <g> <circle cx="337.047" cy="34.791" r="34.791"/> </g> </g><g> <g> <path d="M468.274,379.701h-15.893v0c0.366-0.126,0.733-0.241,1.096-0.389c9.876-4.069,14.584-15.374,10.515-25.251l-33.618-81.596 l-2.543-60.775c-0.101-2.421-0.662-4.709-1.565-6.811L401.154,92.273c-2.825-12.669-15.386-20.649-28.055-17.824l-40.907,9.123 c-12.669,2.825-20.649,15.386-17.824,28.055l3.662,16.418l15.91-25.107l-16.608,47.91l-54.755,23.546 c-7.851,3.376-11.478,12.477-8.102,20.327c3.375,7.847,12.471,11.479,20.326,8.102l61.027-26.242 c3.995-1.718,7.082-5.038,8.507-9.147l18.844-54.356l-6.052,58.79c-1.243,12.069-11.469,15.226-15.951,17.15l-8.712,3.747 l5.109,22.91l-16.762,45.698c-0.48,1.311-0.818,2.669-1.007,4.051l-12.713,93.397c-1.264,9.289,4.293,17.931,12.825,20.881h-16.23 c-3.943,0-7.139,3.196-7.139,7.139v59.007h-77.32c6.062-3.956,9.658-11.149,8.617-18.799l-12.714-93.397 c-1.136-8.347-7.545-14.999-15.845-16.445l-36.216-6.31v-32.849l-45.604-37.168l51.736,25.164c3.91,1.903,8.44,2.071,12.481,0.464 l61.734-24.532c7.941-3.156,11.82-12.151,8.665-20.094c-3.156-7.941-12.153-11.82-20.094-8.665l-55.389,22.012l-45.597-22.179 l31.883,7.183c-1.43-11.611-11.321-20.601-23.318-20.601H97.654c-12.98,0-23.502,10.523-23.502,23.502v120.584h0.021 l-2.509,59.966l-33.619,81.596c-4.07,9.877,0.639,21.182,10.515,25.251c9.884,4.071,21.184-0.644,25.251-10.515l34.918-84.748 c0.859-2.086,1.348-4.306,1.441-6.559l2.685-64.181c0.011-0.273-0.007-0.539-0.007-0.808h15.947 c2.769,1.134,0.17,0.499,49.914,9.168l10.806,79.38c0.788,5.793,4.076,10.62,8.616,13.582h-73.312 c-3.942,0-7.139,3.196-7.139,7.139v51.87c0,3.942,3.196,7.138,7.139,7.138c47.2,0,296.255,0,343.454,0 c3.942,0,7.139-3.195,7.139-7.138c0-23.22,0-94.797,0-118.016C475.412,382.897,472.217,379.701,468.274,379.701z M332.555,379.7 c6.675-2.309,11.846-8.187,12.863-15.664l12.43-91.317l18.871-51.453l12.677-2.827l2.471,59.049 c0.093,2.254,0.582,4.473,1.441,6.559l34.917,84.748c2.199,5.34,6.519,9.157,11.58,10.905H332.555z"/> </g> </g></symbol><symbol id="charity" viewBox="-31 0 512 512"><title>charity</title><path d="m90 0v181h-57.707031l-32.292969 193.757812v137.242188h450v-137.242188l-32.292969-193.757812h-57.707031v-181zm194.960938 271c9.4375-12.542969 15.039062-28.128906 15.039062-45 0-41.355469-33.644531-75-75-75s-75 33.644531-75 75c0 16.871094 5.601562 32.457031 15.039062 45h-45.039062v-182.507812c29.34375-5.980469 52.511719-29.148438 58.492188-58.492188h93.015624c5.980469 29.34375 29.148438 52.511719 58.492188 58.492188v182.507812zm-104.960938-45c0-24.8125 20.1875-45 45-45s45 20.1875 45 45-20.1875 45-45 45-45-20.1875-45-45zm150-168.578125c-12.765625-4.527344-22.894531-14.65625-27.421875-27.421875h27.421875zm-182.578125-27.421875c-4.527344 12.765625-14.65625 22.894531-27.421875 27.421875v-27.421875zm-117.421875 452v-91h390v91zm362.292969-271 25 150h-384.585938l25-150h32.292969v60h-30v30h330v-30h-30v-60zm0 0"/><path d="m225 126.214844-21.210938-21.210938 21.210938-21.214844 21.214844 21.214844zm0 0"/></symbol><symbol id="attach" viewBox="0 0 512 512"><title>attach</title><path d="M379.879,131.063c-28.418,0-51.537,23.12-51.537,51.537s23.119,51.537,51.537,51.537 c28.417,0,51.537-23.119,51.537-51.537C431.416,154.181,408.297,131.063,379.879,131.063z M379.879,214.137 c-17.39,0-31.537-14.147-31.537-31.537s14.147-31.537,31.537-31.537c17.389,0,31.537,14.147,31.537,31.537 C411.416,199.988,397.269,214.137,379.879,214.137z"/><path d="M380.23,451.181c-0.25-0.61-0.56-1.19-0.92-1.73c-0.36-0.55-0.78-1.06-1.24-1.52c-0.46-0.46-0.97-0.88-1.52-1.24 c-0.54-0.36-1.12-0.67-1.73-0.92c-0.6-0.25-1.23-0.45-1.87-0.57c-1.29-0.26-2.61-0.26-3.9,0c-0.64,0.12-1.27,0.32-1.87,0.57 c-0.61,0.25-1.19,0.56-1.73,0.92c-0.55,0.36-1.06,0.78-1.52,1.24c-0.46,0.46-0.88,0.97-1.24,1.52c-0.36,0.54-0.67,1.12-0.92,1.73 c-0.25,0.6-0.45,1.23-0.57,1.87c-0.13,0.64-0.2,1.3-0.2,1.95c0,0.65,0.07,1.31,0.2,1.95c0.12,0.64,0.32,1.27,0.57,1.87 c0.25,0.61,0.56,1.19,0.92,1.73c0.36,0.55,0.78,1.06,1.24,1.52c0.229,0.229,0.471,0.448,0.723,0.655 c0.255,0.208,0.521,0.405,0.797,0.585c0.54,0.36,1.12,0.67,1.73,0.92c0.6,0.25,1.23,0.45,1.87,0.57c0.64,0.13,1.3,0.2,1.95,0.2 c0.65,0,1.31-0.07,1.95-0.2c0.64-0.12,1.27-0.32,1.87-0.57c0.61-0.25,1.19-0.56,1.73-0.92c0.276-0.181,0.542-0.377,0.797-0.585 c0.253-0.207,0.494-0.426,0.723-0.655c0.46-0.46,0.88-0.97,1.24-1.52c0.36-0.54,0.67-1.12,0.92-1.73 c0.25-0.6,0.45-1.23,0.58-1.87c0.13-0.64,0.19-1.3,0.19-1.95s-0.06-1.31-0.19-1.95C380.68,452.41,380.48,451.78,380.23,451.181z"/><path d="M222.85,55.451c-0.25-0.6-0.56-1.18-0.92-1.73c-0.36-0.54-0.78-1.06-1.24-1.52c-0.46-0.46-0.97-0.88-1.52-1.24 c-0.54-0.36-1.12-0.67-1.73-0.92c-0.6-0.25-1.23-0.44-1.87-0.57c-1.29-0.26-2.61-0.26-3.9,0c-0.64,0.13-1.27,0.32-1.88,0.57 c-0.6,0.25-1.18,0.56-1.72,0.92c-0.55,0.36-1.06,0.78-1.52,1.24c-0.46,0.46-0.88,0.98-1.25,1.52c-0.36,0.55-0.66,1.13-0.91,1.73 c-0.25,0.6-0.45,1.23-0.57,1.87c-0.13,0.65-0.2,1.3-0.2,1.96c0,0.65,0.07,1.3,0.2,1.95c0.12,0.64,0.32,1.27,0.57,1.87 c0.25,0.6,0.55,1.18,0.91,1.73c0.37,0.54,0.79,1.06,1.25,1.52c0.46,0.46,0.97,0.88,1.52,1.24c0.54,0.36,1.12,0.67,1.72,0.92 c0.61,0.25,1.24,0.44,1.88,0.57c0.64,0.13,1.3,0.2,1.95,0.2c0.65,0,1.31-0.07,1.95-0.2c0.64-0.13,1.27-0.32,1.87-0.57 c0.61-0.25,1.19-0.56,1.73-0.92c0.55-0.36,1.06-0.78,1.52-1.24c0.46-0.46,0.88-0.98,1.24-1.52c0.36-0.55,0.67-1.13,0.92-1.73 c0.25-0.6,0.45-1.23,0.57-1.87c0.13-0.65,0.2-1.3,0.2-1.95c0-0.66-0.07-1.31-0.2-1.96C223.3,56.681,223.1,56.051,222.85,55.451z"/><path d="M456.128,49.318c-5.996-25.349-28.8-44.274-55.956-44.274H86.417C38.767,5.043,0,43.81,0,91.46v313.755 c0,31.161,24.917,56.595,55.872,57.468c5.996,25.349,28.8,44.274,55.956,44.274H454.49c31.711,0,57.51-25.799,57.51-57.51 v-75.458V106.785C512,75.625,487.083,50.191,456.128,49.318z M492,449.449c0,20.683-16.827,37.51-37.51,37.51H111.828 c-16.01,0-29.702-10.085-35.075-24.233c-1.569-4.13-2.435-8.603-2.435-13.277v-6.723v-46.329l114.725-194.524 c3.493-5.922,9.722-9.38,16.556-9.27c6.875,0.118,12.942,3.792,16.23,9.831l49.396,90.702l71.801,131.843 c1.814,3.332,5.247,5.219,8.791,5.219c1.616,0,3.255-0.393,4.774-1.22c4.85-2.642,6.641-8.715,4-13.565l-23.3-42.785 c10.23,0.472,20.292-2.841,28.305-9.488l44.971-37.306c7.212-5.983,17.861-5.72,24.769,0.613l2.348,2.152l20,18.333L492,378.389 V449.449z M492,351.257l-34.317-31.458l-20-15.229c-13.031-5.45-28.525-3.554-39.886,5.87l-44.971,37.306 c-4.946,4.104-11.404,5.762-17.716,4.549c-6.312-1.212-11.695-5.146-14.769-10.79l-31.552-57.936l-17.618-32.351v-0.001 l-31.777-58.35c-6.778-12.445-19.284-20.02-33.453-20.262c-14.165-0.222-26.926,6.901-34.125,19.107L74.317,357.027V106.785 c0-20.683,16.827-37.51,37.51-37.51h61.792c5.523,0,10-4.477,10-10s-4.477-10-10-10h-61.792c-31.711,0-57.51,25.799-57.51,57.51 v286.882v48.912C35.124,440.952,20,424.822,20,405.215V91.46c0-36.623,29.795-66.417,66.417-66.417h313.755 c16.01,0,29.702,10.085,35.075,24.233H253.619c-5.523,0-10,4.477-10,10c0,5.523,4.477,10,10,10h184.063l20,0.146 C476.876,71.048,492,87.178,492,106.785V351.257z"/></symbol><symbol id="team" viewBox="0 0 512 512"><title>team</title><g> <g> <path d="M451.72,237.26c-17.422-8.71-50.087-8.811-51.469-8.811c-4.142,0-7.5,3.358-7.5,7.5c0,4.142,3.358,7.5,7.5,7.5 c8.429,0.001,32.902,1.299,44.761,7.228c1.077,0.539,2.221,0.793,3.348,0.793c2.751,0,5.4-1.52,6.714-4.147 C456.927,243.618,455.425,239.113,451.72,237.26z"/> </g> </g><g> <g> <path d="M489.112,344.041l-30.975-8.85c-1.337-0.382-2.271-1.62-2.271-3.011v-10.339c2.52-1.746,4.924-3.7,7.171-5.881 c10.89-10.568,16.887-24.743,16.887-39.915v-14.267l2.995-5.989c3.287-6.575,5.024-13.936,5.024-21.286v-38.65 c0-4.142-3.358-7.5-7.5-7.5H408.27c-26.244,0-47.596,21.352-47.596,47.596v0.447c0,6.112,1.445,12.233,4.178,17.699l3.841,7.682 v12.25c0,19.414,9.567,36.833,24.058,47.315l0.002,10.836c0,1.671,0,2.363-6.193,4.133l-15.114,4.318l-43.721-15.898 c0.157-2.063-0.539-4.161-2.044-5.742l-13.971-14.678v-24.64c1.477-1.217,2.933-2.467,4.344-3.789 c17.625-16.52,27.733-39.844,27.733-63.991v-19.678c5.322-11.581,8.019-23.836,8.019-36.457v-80.19c0-4.142-3.358-7.5-7.5-7.5 H232.037c-39.51,0-71.653,32.144-71.653,71.653v16.039c0,12.621,2.697,24.876,8.019,36.457v16.931 c0,28.036,12.466,53.294,32.077,69.946v25.22l-13.971,14.678c-1.505,1.581-2.201,3.679-2.044,5.742l-46.145,16.779 c-3.344,1.216-6.451,2.863-9.272,4.858l-7.246-3.623c21.57-9.389,28.403-22.594,28.731-23.25c1.056-2.111,1.056-4.597,0-6.708 c-5.407-10.814-6.062-30.635-6.588-46.561c-0.175-5.302-0.341-10.311-0.658-14.771c-2.557-35.974-29.905-63.103-63.615-63.103 s-61.059,27.128-63.615,63.103c-0.317,4.461-0.483,9.47-0.658,14.773c-0.526,15.925-1.182,35.744-6.588,46.558 c-1.056,2.111-1.056,4.597,0,6.708c0.328,0.656,7.147,13.834,28.76,23.234l-20.127,10.063C6.684,358.176,0,368.991,0,381.02 v55.409c0,4.142,3.358,7.5,7.5,7.5s7.5-3.358,7.5-7.5V381.02c0-6.312,3.507-11.987,9.152-14.81l25.063-12.531l8.718,8.285 c6.096,5.793,13.916,8.688,21.739,8.688c7.821,0,15.645-2.897,21.739-8.688l8.717-8.284l8.172,4.086 c-3.848,6.157-6.032,13.377-6.032,20.94v57.725c0,4.142,3.358,7.5,7.5,7.5c4.142,0,7.5-3.358,7.5-7.5v-57.725 c0-10.296,6.501-19.578,16.178-23.097l48.652-17.691l20.253,30.381c2.589,3.884,6.738,6.375,11.383,6.835 c0.518,0.051,1.033,0.076,1.547,0.076c4.098,0,8.023-1.613,10.957-4.546l12.356-12.356v78.124c0,4.142,3.358,7.5,7.5,7.5 c4.142,0,7.5-3.358,7.5-7.5v-78.124l12.356,12.356c2.933,2.934,6.858,4.547,10.957,4.547c0.513,0,1.029-0.025,1.546-0.076 c4.646-0.46,8.795-2.951,11.384-6.835l20.254-30.38l48.651,17.691c9.676,3.519,16.178,12.801,16.178,23.097v57.725 c0,4.142,3.358,7.5,7.5,7.5c4.142,0,7.5-3.358,7.5-7.5v-57.725c0-10.428-4.143-20.208-11.093-27.441l1.853-0.529 c1.869-0.534,4.419-1.265,6.979-2.52l19.149,19.149v69.066c0,4.142,3.358,7.5,7.5,7.5c4.142,0,7.5-3.358,7.5-7.5v-69.066 l19.016-19.016c1.011,0.514,2.073,0.948,3.191,1.267l30.976,8.85c7.07,2.02,12.009,8.567,12.009,15.921v62.044 c0,4.142,3.358,7.5,7.5,7.5c4.142,0,7.5-3.358,7.5-7.5v-62.044C512,360.371,502.588,347.892,489.112,344.041z M48.115,330.794 c-14.029-5.048-21.066-11.778-24.07-15.453c2.048-5.354,3.376-11.486,4.275-17.959c4.136,9.917,11.063,18.383,19.795,24.423 V330.794z M91.08,351.092c-6.397,6.078-16.418,6.077-22.813-0.001l-6.975-6.628c1.177-2.205,1.824-4.705,1.824-7.324v-7.994 c5.232,1.635,10.794,2.517,16.558,2.517c5.757,0,11.316-0.886,16.557-2.512l-0.001,7.988c0,2.62,0.646,5.121,1.824,7.327 L91.08,351.092z M79.676,316.662c-22.396,0-40.615-18.22-40.615-40.615c0-4.142-3.358-7.5-7.5-7.5c-0.42,0-0.83,0.043-1.231,0.11 c0.022-0.645,0.043-1.291,0.065-1.93c0.167-5.157,0.328-10.028,0.625-14.206c0.958-13.476,6.343-25.894,15.163-34.968 c8.899-9.156,20.793-14.198,33.491-14.198s24.591,5.042,33.491,14.198c8.82,9.074,14.205,21.492,15.163,34.968 c0.296,4.177,0.458,9.047,0.628,14.203c0.015,0.443,0.03,0.892,0.045,1.338c-8.16-12.572-20.762-21.837-37.045-27.069 c-15.043-4.833-27.981-4.534-28.527-4.52c-1.964,0.055-3.828,0.877-5.191,2.291l-13.532,14.034 c-2.875,2.982-2.789,7.73,0.193,10.605s7.73,2.788,10.605-0.193l11.26-11.677c9.697,0.474,40.894,4.102,53.027,30.819 C116.738,302.04,99.816,316.662,79.676,316.662z M111.229,330.819l0.001-8.945c8.725-6.007,15.662-14.457,19.801-24.449 c0.899,6.458,2.226,12.576,4.27,17.918C132.314,318.983,125.244,325.773,111.229,330.819z M183.403,209.145v-18.608 c0-1.129-0.255-2.244-0.746-3.261c-4.826-9.994-7.273-20.598-7.273-31.518V139.72c0-31.239,25.415-56.653,56.653-56.653h104.769 v72.692c0,10.92-2.447,21.524-7.273,31.518c-0.491,1.017-0.746,2.132-0.746,3.261v21.355c0,20.311-8.165,39.15-22.991,53.047 c-1.851,1.734-3.772,3.36-5.758,4.875c-0.044,0.03-0.086,0.063-0.129,0.094c-13.889,10.545-30.901,15.67-48.667,14.519 C213.201,281.965,183.403,248.897,183.403,209.145z M225.632,360.056c-0.052,0.052-0.173,0.175-0.418,0.149 c-0.244-0.024-0.34-0.167-0.381-0.229l-23.325-34.988l7.506-7.887l35.385,24.187L225.632,360.056z M256.095,331.113 l-40.615-27.762v-14c10.509,5.681,22.276,9.234,34.791,10.044c1.977,0.128,3.942,0.191,5.901,0.191 c14.341,0,28.143-3.428,40.538-9.935v13.7L256.095,331.113z M287.357,359.978c-0.041,0.062-0.137,0.205-0.381,0.229 c-0.245,0.031-0.365-0.098-0.418-0.149l-18.767-18.767l35.385-24.188l7.507,7.887L287.357,359.978z M424.308,353.65l-17.02-17.019 c0.297-1.349,0.465-2.826,0.464-4.455l-0.001-3.165c4.723,1.55,9.701,2.47,14.852,2.624c0.578,0.018,1.151,0.026,1.727,0.026 c5.692,0,11.248-0.86,16.536-2.501v3.02c0,1.496,0.188,2.962,0.542,4.371L424.308,353.65z M452.591,305.196 c-7.949,7.714-18.45,11.788-29.537,11.446c-21.704-0.651-39.361-19.768-39.361-42.613v-14.021c0-1.165-0.271-2.313-0.792-3.354 l-4.633-9.266c-1.697-3.395-2.594-7.195-2.594-10.991v-0.447c0-17.974,14.623-32.596,32.596-32.596h64.673v31.15 c0,5.034-1.19,10.075-3.441,14.578l-3.786,7.572c-0.521,1.042-0.792,2.189-0.792,3.354v16.038 C464.924,287.126,460.544,297.478,452.591,305.196z"/> </g> </g><g> <g> <path d="M472.423,380.814c-4.142,0-7.5,3.358-7.5,7.5v48.115c0,4.142,3.358,7.5,7.5,7.5c4.142,0,7.5-3.358,7.5-7.5v-48.115 C479.923,384.173,476.565,380.814,472.423,380.814z"/> </g> </g><g> <g> <path d="M39.577,390.728c-4.142,0-7.5,3.358-7.5,7.5v38.201c0,4.142,3.358,7.5,7.5,7.5c4.142,0,7.5-3.358,7.5-7.5v-38.201 C47.077,394.087,43.719,390.728,39.577,390.728z"/> </g> </g><g> <g> <path d="M317.532,158.475c-28.366-28.366-87.715-22.943-111.917-19.295c-7.623,1.149-13.155,7.6-13.155,15.339v17.278 c0,4.142,3.358,7.5,7.5,7.5c4.142,0,7.5-3.358,7.5-7.5v-17.279c0-0.255,0.168-0.473,0.392-0.507 c9.667-1.457,28.85-3.705,48.725-2.38c23.388,1.557,40.328,7.428,50.349,17.45c2.929,2.929,7.678,2.929,10.606,0 C320.461,166.152,320.461,161.403,317.532,158.475z"/> </g> </g><g> <g> <path d="M167.884,396.853c-4.142,0-7.5,3.358-7.5,7.5v32.077c0,4.142,3.358,7.5,7.5,7.5c4.142,0,7.5-3.358,7.5-7.5v-32.077 C175.384,400.212,172.026,396.853,167.884,396.853z"/> </g> </g><g> <g> <path d="M344.306,396.853c-4.142,0-7.5,3.358-7.5,7.5v32.077c0,4.142,3.358,7.5,7.5,7.5c4.142,0,7.5-3.358,7.5-7.5v-32.077 C351.806,400.212,348.448,396.853,344.306,396.853z"/> </g> </g></symbol><symbol id="mortarboard" viewBox="0 0 512 512"><title>mortarboard</title><path d="M360.465,443.988c-4.574-1.161-9.207,1.638-10.342,6.204l-8.533,34.133c-1.152,4.582,1.638,9.207,6.212,10.351 c0.691,0.179,1.391,0.256,2.074,0.256c3.823,0,7.296-2.586,8.269-6.46l8.533-34.133 C367.821,449.765,365.039,445.132,360.465,443.988z"/><path d="M256,273.066c1.109,0,2.219-0.213,3.26-0.648l93.867-38.844c4.352-1.801,6.417-6.793,4.617-11.145 c-1.801-4.361-6.81-6.409-11.153-4.625L256,255.299L17.067,156.432v-2.833c0-4.71-3.823-8.533-8.533-8.533S0,148.889,0,153.599 v8.533c0,3.456,2.082,6.571,5.274,7.885l247.467,102.4C253.781,272.852,254.891,273.066,256,273.066z"/><path d="M357.513,360.49c-2.082-4.224-7.185-5.965-11.426-3.874c-16.205,8.013-43.273,17.331-81.553,18.603v-76.553 c0-4.71-3.823-8.533-8.533-8.533s-8.533,3.823-8.533,8.533v76.476c-105.958-3.379-140.151-67.567-145.067-78.251v-57.958 c0-4.71-3.823-8.533-8.533-8.533c-4.71,0-8.533,3.823-8.533,8.533v59.733c0,1.084,0.205,2.159,0.606,3.174 c1.485,3.695,37.803,90.692,170.061,90.692c46.225,0,78.618-11.213,97.647-20.617 C357.879,369.825,359.612,364.714,357.513,360.49z"/><path d="M384,452.266c-4.719,0-8.533,3.823-8.533,8.533v25.6c0,4.71,3.814,8.533,8.533,8.533c4.719,0,8.533-3.823,8.533-8.533 v-25.6C392.533,456.089,388.719,452.266,384,452.266z"/><path d="M503.467,145.066c-4.719,0-8.533,3.823-8.533,8.533v2.816l-102.4,42.146v-15.42l114.193-47.258 c3.191-1.314,5.274-4.429,5.274-7.885c0-3.456-2.082-6.562-5.265-7.885L259.26,17.714c-2.091-0.862-4.429-0.862-6.519,0 L5.274,120.114C2.082,121.437,0,124.543,0,127.999c0,3.456,2.082,6.571,5.274,7.885l247.467,102.4 c1.041,0.435,2.15,0.649,3.26,0.649s2.219-0.213,3.26-0.649l89.481-37.026c4.361-1.792,6.426-6.784,4.625-11.145 c-1.801-4.352-6.793-6.409-11.145-4.617L256,221.166L30.848,127.999L256,34.832l225.152,93.167l-97.971,40.542l-93.841-35.038 c0.495-1.775,0.794-3.601,0.794-5.504c0-14.353-14.993-25.6-34.133-25.6s-34.133,11.247-34.133,25.6 c0,14.353,14.993,25.6,34.133,25.6c8.542,0,16.162-2.33,22.084-6.084l97.382,36.361v27.341v0.009v182.878 c-9.907,3.541-17.067,12.919-17.067,24.03c0,14.114,11.486,25.6,25.6,25.6s25.6-11.486,25.6-25.6 c0-11.11-7.159-20.488-17.067-24.03v-48.435c24.499-18.492,33.28-43.119,33.664-44.211c0.307-0.896,0.469-1.843,0.469-2.79 v-59.733c0-4.71-3.814-8.533-8.533-8.533s-8.533,3.823-8.533,8.533v58.155c-1.476,3.618-6.605,14.771-17.067,25.779V217.019 l114.185-46.993c3.2-1.314,5.282-4.437,5.282-7.893v-8.533C512,148.889,508.186,145.066,503.467,145.066z M256,136.532 c-10.419,0-17.067-5.052-17.067-8.533c0-3.482,6.647-8.533,17.067-8.533s17.067,5.052,17.067,8.533 C273.067,131.481,266.419,136.532,256,136.532z M384,426.666c-4.71,0-8.533-3.831-8.533-8.533c0-4.702,3.823-8.533,8.533-8.533 s8.533,3.831,8.533,8.533C392.533,422.834,388.71,426.666,384,426.666z"/><path d="M417.877,450.192c-1.143-4.565-5.786-7.356-10.342-6.204c-4.574,1.143-7.356,5.777-6.212,10.351l8.533,34.133 c0.973,3.874,4.446,6.46,8.269,6.46c0.683,0,1.382-0.077,2.074-0.256c4.574-1.143,7.356-5.769,6.212-10.351L417.877,450.192z"/></symbol><symbol id="heartbeat" viewBox="0 0 512 512"><title>heartbeat</title><g> <g> <path d="M376,33c-60.659,0-99.595,42.012-120,79.849C235.595,75.011,196.659,33,136,33C59.037,33,0,95.446,0,178.268 c0,21.61,4.327,41.561,12.294,60.732h114.434l25.854-51.709c5.098-10.166,21.738-10.166,26.836,0L226,280.456l16.582-33.164 c5.098-10.166,21.738-10.166,26.836,0L286,280.456l46.582-93.164c5.098-10.166,21.738-10.166,26.836,0L385.272,239h114.434 C507.673,219.829,512,199.878,512,178.268C512,95.446,452.963,33,376,33z"/> </g> </g><g> <g> <path d="M376,269c-5.684,0-10.869-3.208-13.418-8.291L346,227.545l-46.582,93.164C296.869,325.792,291.684,329,286,329 c-5.684,0-10.869-3.208-13.418-8.291L256,287.545l-16.582,33.164c-5.098,10.166-21.738,10.166-26.836,0L166,227.545 l-16.582,33.164C146.869,265.792,141.684,269,136,269H28.037c30.873,48.574,86.474,94.713,156.024,153.413 c19.526,16.479,40.298,34.014,62.109,52.925c2.827,2.446,6.328,3.662,9.829,3.662s7.002-1.216,9.829-3.662 c21.812-18.911,42.583-36.445,62.109-52.925c69.551-58.7,125.151-104.839,156.024-153.413H376z"/> </g> </g></symbol></svg>