<svg height="512pt" viewBox="0 0 512 512.00265" width="512pt" xmlns="http://www.w3.org/2000/svg"><path d="m197.273438 237.882812c-.089844.21875-9.148438 21.628907-40.691407 21.628907-31.402343 0-42.558593-21.105469-43.082031-22.136719-1.828125-3.695312-6.300781-5.222656-10.007812-3.410156-3.722657 1.816406-5.269532 6.308594-3.449219 10.03125.605469 1.246094 15.371093 30.515625 56.539062 30.515625 41.527344 0 54.074219-29.71875 54.589844-30.984375 1.558594-3.839844-.289063-8.214844-4.125-9.773438-3.84375-1.554687-8.214844.289063-9.773437 4.128906zm0 0"/><path d="m504.5 296.367188c4.144531 0 7.5-3.359376 7.5-7.5v-24.363282c0-4.144531-3.355469-7.5-7.5-7.5h-29.324219c-.332031-.605468-.585937-1.15625-.707031-1.609375-.355469-1.328125-.230469-3.585937-.109375-5.769531.238281-4.273438.535156-9.59375-2.234375-14.382812-2.804688-4.847657-7.59375-7.253907-11.445312-9.1875-1.921876-.96875-3.914063-1.96875-4.835938-2.890626-.925781-.925781-1.925781-2.914062-2.890625-4.839843-1.9375-3.847657-4.34375-8.640625-9.1875-11.441407-4.792969-2.769531-10.109375-2.476562-14.382813-2.238281-2.1875.121094-4.445312.246094-5.769531-.105469-1.1875-.316406-3.003906-1.511718-4.757812-2.667968-3.632813-2.390625-8.148438-5.367188-13.855469-5.367188-5.703125 0-10.222656 2.976563-13.855469 5.367188-1.753906 1.15625-3.570312 2.351562-4.753906 2.667968-1.328125.355469-3.585937.230469-5.769531.105469-4.277344-.234375-9.59375-.53125-14.382813 2.238281-4.847656 2.804688-7.253906 7.59375-9.1875 11.441407-.96875 1.925781-1.96875 3.914062-2.890625 4.839843-.925781.921876-2.914062 1.921876-4.839844 2.890626-3.847656 1.933593-8.640624 4.34375-11.441406 9.1875-2.773437 4.789062-2.476562 10.109374-2.238281 14.382812.121094 2.183594.246094 4.441406-.105469 5.769531-.121094.457031-.375 1.007813-.707031 1.609375h-30.328125c-4.140625 0-7.5 3.355469-7.5 7.5v92.640625c-3.65625-1.394531-7.570312-2.140625-11.578125-2.140625-4.042969 0-7.84375 1.585938-10.703125 4.464844-2.847656 2.867188-4.417969 6.679688-4.417969 10.726562v27.898438c-18.253906-18.683594-41.808593-29.089844-66.960937-29.089844h-10.339844v-43.691406c20.601562-7.03125 38.976562-19.855469 52.964844-37.445312 2.578125-3.242188 2.042968-7.960938-1.199219-10.539063s-7.960937-2.042969-10.539063 1.203125c-13.199218 16.597656-30.882812 28.328125-50.660156 34.035156-.117187.027344-.234375.058594-.347656.09375-8.871094 2.523438-18.15625 3.84375-27.648438 3.84375h-.140624c-55.375 0-100.429688-45.054687-100.429688-100.429687v-32.03125c2.3125-.738281 4.507812-1.886719 6.480469-3.457031 17.1875-13.601563 24.152343-44.109376 26.777343-61.085938.167969-1.101562 1.03125-1.949219 2.136719-2.101562 15.667969-2.183594 54.96875-8.886719 81.507813-24.011719 8.90625-5.074219 20.132812-3.484375 27.308594 3.859375 6.15625 6.300781 13.523437 12.191406 21.898437 17.515625.664063.421875 1.105469 1.082031 1.207031 1.808593 1.980469 14.339844 8.605469 49.285157 27.207032 64.007813 1.976562 1.570313 4.167968 2.730469 6.476562 3.46875v32.027344c0 12.671875-2.328125 25.023437-6.917969 36.710937-1.515625 3.851563.382813 8.207032 4.238281 9.722656.902344.351563 1.828126.519532 2.742188.519532 2.992188 0 5.820312-1.804688 6.980469-4.757813 5.203125-13.242187 7.875-27.21875 7.953125-41.550781 2.214844.507812 4.46875.785156 6.746094.785156 19.273437 0 33.261718-20.644531 33.261718-49.089844 0-21.859374-8.714844-37.414062-23.164062-42.292968-.371094-7.835938-1.242188-13.667969-1.589844-15.769532.066406-4.304687-.148438-23.5625-8.394531-43.417968-8.449219-20.355469-26.984375-44.921875-67.410157-48.277344-7.269531-8.636719-31.15625-26.5-99.929687-14.804688-33.660156 5.734376-59.199219 26.144532-73.84375 59.027344-10.046875 22.550782-11.660156 43.488282-11.871094 47.183594-.308593 1.804688-1.25 7.824219-1.640625 16.0625-14.445312 4.875-23.160156 20.433594-23.160156 42.289062 0 28.445313 13.988281 49.089844 33.261719 49.089844 2.277343 0 4.53125-.277344 6.746093-.785156.277344 50.273438 32.855469 93.035156 77.992188 108.550781v43.734375h-10.339844c-26.050781 0-50.75 11.316406-69.554687 31.863282-2.796875 3.054687-2.585938 7.800781.46875 10.597656 1.4375 1.316406 3.253906 1.96875 5.0625 1.96875 2.03125 0 4.054687-.820313 5.535156-2.4375 15.925781-17.40625 36.699219-26.992188 58.488281-26.992188h.90625c1.441406 10.082032 6.070313 19.394532 13.398438 26.722656 8.960937 8.960938 20.871094 13.898438 33.535156 13.898438 23.839844 0 43.617188-17.683594 46.925781-40.621094h.914063c25.757812 0 49.667968 13.210938 66.023437 36.359375-1.097656 4.714844-3.171875 9.1875-6.101562 13.0625-6.527344 8.625-10.121094 19.234375-10.121094 29.878907 0 1.929687.121094 3.886718.355469 5.808593 1.398437 11.417969 5.808594 20.828125 12.886718 27.890625h-244.382812v-12.929687c0-16.8125 3.644531-33.441407 10.53125-48.082031 1.765625-3.75.15625-8.21875-3.59375-9.980469-3.746094-1.765625-8.214844-.15625-9.976562 3.59375-7.824219 16.625-11.960938 35.460937-11.960938 54.46875v20.429687c0 4.140625 3.359375 7.5 7.5 7.5h282c1.054688 0 2.054688-.21875 2.964844-.613281.925781.105469 1.859375.195313 2.800781.273437.707031.21875 1.457031.339844 2.234375.339844h200c4.140625 0 7.5-3.359375 7.5-7.5v-184.75c0-4.144531-3.359375-7.5-7.5-7.5s-7.5 3.355469-7.5 7.5v177.246094h-185v-224.996094h15.625c-.078125.648438-.125 1.316406-.125 2 0 5.703125 2.976562 10.222656 5.367188 13.851563 1.15625 1.757812 2.351562 3.570312 2.667968 4.757812.351563 1.328125.226563 3.585938.105469 5.769531-.238281 4.273438-.535156 9.59375 2.238281 14.382813 2.804688 4.847656 7.59375 7.253906 11.441406 9.1875 1.925782.964844 3.914063 1.964844 4.839844 2.890625.921875.925781 1.921875 2.914062 2.890625 4.839844 1.933594 3.847656 4.339844 8.640625 9.1875 11.441406 4.789063 2.769531 10.109375 2.476562 14.382813 2.238281 2.183594-.121093 4.441406-.246093 5.769531.105469 1.1875.316406 3 1.511719 4.757813 2.667969 3.628906 2.390625 8.148437 5.363281 13.855468 5.363281 5.703125 0 10.222656-2.972656 13.851563-5.363281 1.753906-1.15625 3.570312-2.351563 4.757812-2.667969 1.328125-.355469 3.585938-.226562 5.769531-.105469 4.273438.234375 9.59375.53125 14.382813-2.238281 4.84375-2.804688 7.253906-7.59375 9.1875-11.441406.964844-1.925782 1.964844-3.914063 2.890625-4.839844s2.914062-1.925781 4.839844-2.890625c3.847656-1.933594 8.640625-4.34375 11.441406-9.1875 2.769531-4.789063 2.476562-10.109375 2.234375-14.382813-.121094-2.183593-.246094-4.441406.109375-5.769531.316406-1.1875 1.511719-3 2.667969-4.757812 2.390625-3.628907 5.363281-8.148438 5.363281-13.851563 0-.683594-.042969-1.351562-.121094-2h14.621094v16.863282c0 4.140624 3.359375 7.5 7.5 7.5zm-208.5-127.953126c0 16.757813-6.828125 34.089844-18.257812 34.089844-2.316407 0-4.570313-.53125-6.742188-1.558594v-17.898437c5.011719-2.324219 8.988281-6.550781 10.949219-11.789063 3.457031-9.25 5.085937-19.078124 5.71875-28.113281 6.011719 5.320313 8.332031 15.65625 8.332031 25.269531zm-256.359375-56.140624c.066406-.34375.105469-.703126.121094-1.050782.007812-.207031 1.007812-20.910156 10.800781-42.660156 12.710938-28.230469 33.730469-45.027344 62.472656-49.921875 15.320313-2.605469 28.03125-3.632813 38.5625-3.632813 37.527344 0 47.269532 13.066407 48.125 14.339844 1.128906 2.601563 3.449219 3.90625 6.300782 4.050782 67.195312 3.320312 65.328124 74.203124 65.214843 77.207031-.023437.558593.019531 1.117187.121094 1.667969.027344.15625 1.519531 8.457031 1.636719 19.734374 0 .125.003906.246094.007812.367188.078125 10.101562-.957031 22.523438-5.109375 33.628906v.003906c-.695312 1.867188-2.199219 3.242188-4.125 3.777344-.273437.074219-.613281.148438-1 .1875-.011719 0-.027343 0-.039062 0-1.078125.105469-2.507813-.054687-3.886719-1.144531-14.75-11.679687-20.316406-44.523437-21.667969-54.3125-.707031-5.101563-3.628906-9.625-8.019531-12.414063-7.402344-4.703124-13.867188-9.863281-19.214844-15.335937-11.9375-12.226563-30.632812-14.859375-45.464844-6.410156-24.28125 13.835937-61.339843 20.125-76.148437 22.183593-7.71875 1.074219-13.703125 6.972657-14.894531 14.671876-3.835938 24.820312-11.78125 44.113281-21.269532 51.625-1.328124 1.054687-2.710937 1.230468-3.773437 1.144531-.097656-.011719-.195313-.019531-.292969-.027344-.324218-.039063-.613281-.101563-.847656-.167969-1.925781-.535156-3.429688-1.910156-4.128906-3.785156-8.839844-23.605469-3.53125-53.433594-3.480469-53.726562zm-24.640625 56.140624c0-9.613281 2.324219-19.953124 8.335938-25.273437.636718 9.039063 2.269531 18.867187 5.734374 28.113281 1.953126 5.238282 5.925782 9.460938 10.929688 11.785156v17.90625c-2.167969 1.027344-4.421875 1.558594-6.738281 1.558594-11.429688 0-18.261719-17.332031-18.261719-34.089844zm140.5 241.207032c-8.65625 0-16.796875-3.375-22.925781-9.503906-4.695313-4.691407-7.769531-10.570313-8.949219-16.960938 5.460938-1.980469 9.375-7.222656 9.375-13.363281v-40.484375c7.257812 1.433594 14.757812 2.195312 22.429688 2.195312h.140624c7.617188 0 15.121094-.742187 22.429688-2.175781v40.464844c0 6.136719 3.910156 11.378906 9.375 13.359375-2.804688 15.046875-16.03125 26.46875-31.875 26.46875zm119.722656 32.855468c4.941406-6.535156 8.199219-14.246093 9.445313-22.273437.003906-.015625.007812-.03125.011719-.046875.015624-.105469.039062-.207031.054687-.308594.375-2.4375.566406-4.9375.566406-7.4375v-42.21875c0-.035156 0-.089844.121094-.1875 4.292969 0 8.386719 1.589844 11.578125 4.398438v121.457031c-17.269531-3.125-26.644531-12.464844-28.613281-28.570313-.164063-1.320312-.246094-2.664062-.246094-3.988281 0-7.394531 2.515625-14.789062 7.082031-20.824219zm189.382813-162.867187c-1.726563 2.625-3.683594 5.597656-4.628907 9.132813-.972656 3.640624-.769531 7.269531-.59375 10.472656.121094 2.164062.285157 5.125-.242187 6.039062-.5625.964844-3.238281 2.3125-5.195313 3.296875-2.847656 1.429688-6.074218 3.050781-8.710937 5.6875-2.632813 2.632813-4.257813 5.859375-5.6875 8.710938-.980469 1.953125-2.328125 4.632812-3.292969 5.191406-.917968.527344-3.878906.363281-6.039062.242187-3.203125-.175781-6.835938-.378906-10.476563.59375-3.53125.945313-6.507812 2.902344-9.132812 4.632813-1.957031 1.289063-4.394531 2.894531-5.605469 2.894531-1.207031 0-3.644531-1.605468-5.601562-2.894531-2.625-1.730469-5.601563-3.6875-9.136719-4.632813-2.160157-.578124-4.320313-.742187-6.386719-.742187-1.414062 0-2.785156.078125-4.085938.148437-2.160156.125-5.121093.285157-6.039062-.242187-.964844-.558594-2.3125-3.238281-3.292969-5.195313-1.433593-2.847656-3.054687-6.074218-5.691406-8.710937-2.632813-2.632813-5.859375-4.253906-8.707031-5.683594-1.957032-.984375-4.636719-2.332031-5.195313-3.296875-.527343-.914062-.363281-3.875-.242187-6.039062.175781-3.203125.378906-6.832032-.59375-10.472656-.945313-3.535157-2.902344-6.507813-4.632813-9.132813-1.289062-1.960937-2.890625-4.394531-2.890625-5.605469 0-1.148437 1.4375-3.394531 2.6875-5.292968.007813-.011719.015625-.023438.023438-.039063.0625-.089844.121094-.183594.179687-.273437 1.730469-2.625 3.6875-5.601563 4.632813-9.132813.972656-3.640625.769531-7.273437.59375-10.476563-.121094-2.160156-.285156-5.121093.242187-6.035156.5625-.96875 3.238281-2.3125 5.195313-3.296875 2.847656-1.429687 6.074218-3.054687 8.710937-5.6875 2.632813-2.632812 4.253907-5.863281 5.6875-8.710937.980469-1.957032 2.328125-4.636719 3.292969-5.191406.914062-.53125 3.875-.367188 6.039062-.246094 3.203126.179687 6.832032.382812 10.476563-.59375 3.53125-.941406 6.507813-2.902344 9.132813-4.628906 1.957031-1.289063 4.394531-2.894532 5.605468-2.894532 1.207032 0 3.644532 1.605469 5.601563 2.894532 2.625 1.726562 5.601562 3.683593 9.136719 4.632812 3.640624.96875 7.269531.769531 10.472656.589844 2.164062-.121094 5.125-.285156 6.039062.246094.964844.558593 2.3125 3.238281 3.296875 5.191406 1.429688 2.847656 3.050781 6.074218 5.6875 8.710937 2.632813 2.636719 5.859375 4.257813 8.707031 5.6875 1.957032.984375 4.636719 2.328125 5.195313 3.296875.527344.914063.363281 3.875.242187 6.035156-.175781 3.203126-.378906 6.835938.59375 10.476563.945313 3.53125 2.902344 6.507813 4.632813 9.132813.058594.089843.117187.183593.179687.273437.007813.015625.015626.027344.023438.039063 1.25 1.898437 2.691406 4.144531 2.691406 5.292968-.003906 1.210938-1.605468 3.644532-2.898437 5.605469zm0 0"/><path d="m390.136719 251.640625c0 4.144531-3.355469 7.5-7.5 7.5-4.140625 0-7.5-3.355469-7.5-7.5 0-4.140625 3.359375-7.5 7.5-7.5 4.144531 0 7.5 3.359375 7.5 7.5zm0 0"/><path d="m434.863281 296.367188c0 4.140624-3.355469 7.5-7.5 7.5-4.140625 0-7.5-3.359376-7.5-7.5 0-4.144532 3.359375-7.5 7.5-7.5 4.144531 0 7.5 3.355468 7.5 7.5zm0 0"/><path d="m422.410156 245.988281-45.421875 45.421875c-2.929687 2.929688-2.929687 7.679688 0 10.609375 1.464844 1.460938 3.382813 2.195313 5.300781 2.195313 1.921876 0 3.839844-.734375 5.304688-2.195313l45.421875-45.425781c2.929687-2.929688 2.929687-7.675781 0-10.605469-2.929687-2.925781-7.679687-2.925781-10.605469 0zm0 0"/><path d="m475 365.503906h-140c-4.140625 0-7.5 3.355469-7.5 7.5 0 4.140625 3.359375 7.5 7.5 7.5h140c4.144531 0 7.5-3.359375 7.5-7.5 0-4.144531-3.355469-7.5-7.5-7.5zm0 0"/><path d="m475 395.503906h-140c-4.140625 0-7.5 3.355469-7.5 7.5 0 4.140625 3.359375 7.5 7.5 7.5h140c4.144531 0 7.5-3.359375 7.5-7.5 0-4.144531-3.355469-7.5-7.5-7.5zm0 0"/><path d="m482.5 433.003906c0-4.144531-3.355469-7.5-7.5-7.5h-140c-4.140625 0-7.5 3.355469-7.5 7.5 0 4.140625 3.359375 7.5 7.5 7.5h140c4.144531 0 7.5-3.359375 7.5-7.5zm0 0"/><path d="m335 455.5c-4.140625 0-7.5 3.359375-7.5 7.5 0 4.144531 3.359375 7.5 7.5 7.5h35.6875c4.144531 0 7.5-3.355469 7.5-7.5 0-4.140625-3.355469-7.5-7.5-7.5zm0 0"/></svg>