<svg height="512pt" viewBox="-31 0 512 512" width="512pt" xmlns="http://www.w3.org/2000/svg"><path d="m90 0v181h-57.707031l-32.292969 193.757812v137.242188h450v-137.242188l-32.292969-193.757812h-57.707031v-181zm194.960938 271c9.4375-12.542969 15.039062-28.128906 15.039062-45 0-41.355469-33.644531-75-75-75s-75 33.644531-75 75c0 16.871094 5.601562 32.457031 15.039062 45h-45.039062v-182.507812c29.34375-5.980469 52.511719-29.148438 58.492188-58.492188h93.015624c5.980469 29.34375 29.148438 52.511719 58.492188 58.492188v182.507812zm-104.960938-45c0-24.8125 20.1875-45 45-45s45 20.1875 45 45-20.1875 45-45 45-45-20.1875-45-45zm150-168.578125c-12.765625-4.527344-22.894531-14.65625-27.421875-27.421875h27.421875zm-182.578125-27.421875c-4.527344 12.765625-14.65625 22.894531-27.421875 27.421875v-27.421875zm-117.421875 452v-91h390v91zm362.292969-271 25 150h-384.585938l25-150h32.292969v60h-30v30h330v-30h-30v-60zm0 0"/><path d="m225 126.214844-21.210938-21.210938 21.210938-21.214844 21.214844 21.214844zm0 0"/></svg>